<svg width="100" height="96" viewBox="0 0 100 96" fill="none" xmlns="http://www.w3.org/2000/svg">
<path d="M35.5762 74V64.0469H38.8301C39.9102 64.0469 40.7214 64.2702 41.2637 64.7168C41.8105 65.1634 42.084 65.8242 42.084 66.6992C42.084 67.1641 41.9518 67.5765 41.6875 67.9365C41.4232 68.292 41.0632 68.5677 40.6074 68.7637C41.1452 68.9141 41.569 69.2012 41.8789 69.625C42.1934 70.0443 42.3506 70.5456 42.3506 71.1289C42.3506 72.0221 42.0612 72.724 41.4824 73.2344C40.9036 73.7448 40.0856 74 39.0283 74H35.5762ZM36.8887 69.3447V72.9268H39.0557C39.6663 72.9268 40.1471 72.7695 40.498 72.4551C40.8535 72.1361 41.0312 71.6986 41.0312 71.1426C41.0312 69.944 40.3796 69.3447 39.0762 69.3447H36.8887ZM36.8887 68.292H38.8711C39.4453 68.292 39.9033 68.1484 40.2451 67.8613C40.5915 67.5742 40.7646 67.1846 40.7646 66.6924C40.7646 66.1455 40.6051 65.749 40.2861 65.5029C39.9671 65.2523 39.4818 65.127 38.8301 65.127H36.8887V68.292ZM48.667 74C48.5941 73.8542 48.5348 73.5944 48.4893 73.2207C47.9014 73.8314 47.1995 74.1367 46.3838 74.1367C45.6546 74.1367 45.0553 73.9316 44.5859 73.5215C44.1211 73.1068 43.8887 72.5827 43.8887 71.9492C43.8887 71.179 44.1803 70.582 44.7637 70.1582C45.3516 69.7298 46.1764 69.5156 47.2383 69.5156H48.4688V68.9346C48.4688 68.4925 48.3366 68.1416 48.0723 67.8818C47.8079 67.6175 47.4183 67.4854 46.9033 67.4854C46.4521 67.4854 46.0739 67.5993 45.7686 67.8271C45.4632 68.055 45.3105 68.3307 45.3105 68.6543H44.0391C44.0391 68.2852 44.1689 67.9297 44.4287 67.5879C44.693 67.2415 45.0485 66.9681 45.4951 66.7676C45.9463 66.5671 46.4408 66.4668 46.9785 66.4668C47.8307 66.4668 48.4984 66.681 48.9814 67.1094C49.4645 67.5332 49.7152 68.1188 49.7334 68.8662V72.2705C49.7334 72.9495 49.82 73.4896 49.9932 73.8906V74H48.667ZM46.5684 73.0361C46.9648 73.0361 47.3408 72.9336 47.6963 72.7285C48.0518 72.5234 48.3092 72.2568 48.4688 71.9287V70.4111H47.4775C45.9281 70.4111 45.1533 70.8646 45.1533 71.7715C45.1533 72.168 45.2855 72.4779 45.5498 72.7012C45.8141 72.9245 46.1536 73.0361 46.5684 73.0361ZM52.9121 66.6035L52.9531 67.5332C53.5182 66.8223 54.2565 66.4668 55.168 66.4668C56.7311 66.4668 57.5195 67.3486 57.5332 69.1123V74H56.2686V69.1055C56.264 68.5723 56.141 68.1781 55.8994 67.9229C55.6624 67.6676 55.291 67.54 54.7852 67.54C54.375 67.54 54.015 67.6494 53.7051 67.8682C53.3952 68.0869 53.1536 68.374 52.9805 68.7295V74H51.7158V66.6035H52.9121ZM61.5049 70.5752L60.7119 71.4023V74H59.4473V63.5H60.7119V69.8506L61.3887 69.0371L63.6924 66.6035H65.2305L62.3525 69.6934L65.5654 74H64.082L61.5049 70.5752ZM32.165 83.127H28.9658V92H27.6602V83.127H24.4678V82.0469H32.165V83.127ZM36.499 85.7383C36.3076 85.7064 36.1003 85.6904 35.877 85.6904C35.0475 85.6904 34.4847 86.0436 34.1885 86.75V92H32.9238V84.6035H34.1543L34.1748 85.458C34.5895 84.7972 35.1774 84.4668 35.9385 84.4668C36.1846 84.4668 36.3714 84.4987 36.499 84.5625V85.7383ZM41.9609 92C41.888 91.8542 41.8288 91.5944 41.7832 91.2207C41.1953 91.8314 40.4935 92.1367 39.6777 92.1367C38.9486 92.1367 38.3493 91.9316 37.8799 91.5215C37.415 91.1068 37.1826 90.5827 37.1826 89.9492C37.1826 89.179 37.4743 88.582 38.0576 88.1582C38.6455 87.7298 39.4704 87.5156 40.5322 87.5156H41.7627V86.9346C41.7627 86.4925 41.6305 86.1416 41.3662 85.8818C41.1019 85.6175 40.7122 85.4854 40.1973 85.4854C39.7461 85.4854 39.3678 85.5993 39.0625 85.8271C38.7572 86.055 38.6045 86.3307 38.6045 86.6543H37.333C37.333 86.2852 37.4629 85.9297 37.7227 85.5879C37.987 85.2415 38.3424 84.9681 38.7891 84.7676C39.2402 84.5671 39.7347 84.4668 40.2725 84.4668C41.1247 84.4668 41.7923 84.681 42.2754 85.1094C42.7585 85.5332 43.0091 86.1188 43.0273 86.8662V90.2705C43.0273 90.9495 43.1139 91.4896 43.2871 91.8906V92H41.9609ZM39.8623 91.0361C40.2588 91.0361 40.6348 90.9336 40.9902 90.7285C41.3457 90.5234 41.6032 90.2568 41.7627 89.9287V88.4111H40.7715C39.222 88.4111 38.4473 88.8646 38.4473 89.7715C38.4473 90.168 38.5794 90.4779 38.8438 90.7012C39.1081 90.9245 39.4476 91.0361 39.8623 91.0361ZM46.2061 84.6035L46.2471 85.5332C46.8122 84.8223 47.5505 84.4668 48.4619 84.4668C50.0251 84.4668 50.8135 85.3486 50.8271 87.1123V92H49.5625V87.1055C49.5579 86.5723 49.4349 86.1781 49.1934 85.9229C48.9564 85.6676 48.585 85.54 48.0791 85.54C47.6689 85.54 47.3089 85.6494 46.999 85.8682C46.6891 86.0869 46.4476 86.374 46.2744 86.7295V92H45.0098V84.6035H46.2061ZM57.041 90.0381C57.041 89.6963 56.9111 89.432 56.6514 89.2451C56.3962 89.0537 55.9473 88.8896 55.3047 88.7529C54.6667 88.6162 54.1585 88.4521 53.7803 88.2607C53.4066 88.0693 53.1286 87.8415 52.9463 87.5771C52.7686 87.3128 52.6797 86.9984 52.6797 86.6338C52.6797 86.0277 52.9349 85.515 53.4453 85.0957C53.9603 84.6764 54.6165 84.4668 55.4141 84.4668C56.2526 84.4668 56.9316 84.6833 57.4512 85.1162C57.9753 85.5492 58.2373 86.1029 58.2373 86.7773H56.9658C56.9658 86.431 56.8177 86.1325 56.5215 85.8818C56.2298 85.6312 55.8607 85.5059 55.4141 85.5059C54.9538 85.5059 54.5938 85.6061 54.334 85.8066C54.0742 86.0072 53.9443 86.2692 53.9443 86.5928C53.9443 86.8981 54.0651 87.1283 54.3066 87.2832C54.5482 87.4382 54.9834 87.5863 55.6123 87.7275C56.2458 87.8688 56.7585 88.0374 57.1504 88.2334C57.5423 88.4294 57.8317 88.6663 58.0186 88.9443C58.21 89.2178 58.3057 89.5527 58.3057 89.9492C58.3057 90.61 58.0413 91.141 57.5127 91.542C56.984 91.9385 56.2982 92.1367 55.4551 92.1367C54.8626 92.1367 54.3385 92.0319 53.8828 91.8223C53.4271 91.6126 53.0693 91.321 52.8096 90.9473C52.5544 90.569 52.4268 90.1611 52.4268 89.7236H53.6914C53.7142 90.1475 53.8828 90.4847 54.1973 90.7354C54.5163 90.9814 54.9355 91.1045 55.4551 91.1045C55.9336 91.1045 56.3164 91.0088 56.6035 90.8174C56.8952 90.6214 57.041 90.3617 57.041 90.0381ZM60.5752 92V85.5811H59.4062V84.6035H60.5752V83.8447C60.5752 83.0518 60.7871 82.4388 61.2109 82.0059C61.6348 81.5729 62.234 81.3564 63.0088 81.3564C63.3005 81.3564 63.5898 81.3952 63.877 81.4727L63.8086 82.498C63.5944 82.457 63.3665 82.4365 63.125 82.4365C62.7148 82.4365 62.3981 82.5573 62.1748 82.7988C61.9515 83.0358 61.8398 83.3776 61.8398 83.8242V84.6035H63.4189V85.5811H61.8398V92H60.5752ZM67.7256 92.1367C66.723 92.1367 65.9072 91.8086 65.2783 91.1523C64.6494 90.4915 64.335 89.6097 64.335 88.5068V88.2744C64.335 87.5407 64.474 86.8867 64.752 86.3125C65.0345 85.7337 65.4264 85.2826 65.9277 84.959C66.4336 84.6309 66.9805 84.4668 67.5684 84.4668C68.5299 84.4668 69.2773 84.7835 69.8105 85.417C70.3438 86.0505 70.6104 86.9574 70.6104 88.1377V88.6641H65.5996C65.6178 89.3932 65.8298 89.9834 66.2354 90.4346C66.6455 90.8812 67.165 91.1045 67.7939 91.1045C68.2406 91.1045 68.6188 91.0133 68.9287 90.8311C69.2386 90.6488 69.5098 90.4072 69.7422 90.1064L70.5146 90.708C69.8949 91.6605 68.9652 92.1367 67.7256 92.1367ZM67.5684 85.5059C67.0579 85.5059 66.6296 85.6927 66.2832 86.0664C65.9368 86.4355 65.7227 86.9551 65.6406 87.625H69.3457V87.5293C69.3092 86.8867 69.1361 86.39 68.8262 86.0391C68.5163 85.6836 68.097 85.5059 67.5684 85.5059ZM75.6553 85.7383C75.4639 85.7064 75.2565 85.6904 75.0332 85.6904C74.2038 85.6904 73.641 86.0436 73.3447 86.75V92H72.0801V84.6035H73.3105L73.3311 85.458C73.7458 84.7972 74.3337 84.4668 75.0947 84.4668C75.3408 84.4668 75.5277 84.4987 75.6553 84.5625V85.7383Z" fill="#242424"/>
<circle cx="50" cy="28" r="28" fill="#F0F7FC"/>
<path d="M45 26H42V33H45V26Z" fill="#00AEEF"/>
<path d="M51.5 26H48.5V33H51.5V26Z" fill="#00AEEF"/>
<path d="M60 35H40V38H60V35Z" fill="#003A63"/>
<path d="M58 26H55V33H58V26Z" fill="#00AEEF"/>
<path d="M50 17L40 22V24H60V22L50 17Z" fill="#003A63"/>
</svg>
