<svg width="100" height="96" viewBox="0 0 100 96" fill="none" xmlns="http://www.w3.org/2000/svg">
<path d="M42.6445 70.8418C42.5215 71.8945 42.1318 72.708 41.4756 73.2822C40.8239 73.8519 39.9557 74.1367 38.8711 74.1367C37.6953 74.1367 36.752 73.7152 36.041 72.8721C35.3346 72.029 34.9814 70.901 34.9814 69.4883V68.5312C34.9814 67.6061 35.1455 66.7926 35.4736 66.0908C35.8063 65.389 36.2757 64.8512 36.8818 64.4775C37.488 64.0993 38.1898 63.9102 38.9873 63.9102C40.0446 63.9102 40.8923 64.2064 41.5303 64.7988C42.1683 65.3867 42.5397 66.2025 42.6445 67.2461H41.3252C41.2113 66.4531 40.9629 65.8789 40.5801 65.5234C40.2018 65.168 39.6709 64.9902 38.9873 64.9902C38.1488 64.9902 37.4902 65.3001 37.0117 65.9199C36.5378 66.5397 36.3008 67.4215 36.3008 68.5654V69.5293C36.3008 70.6094 36.5264 71.4684 36.9775 72.1064C37.4287 72.7445 38.0599 73.0635 38.8711 73.0635C39.6003 73.0635 40.1585 72.8994 40.5459 72.5713C40.9378 72.2386 41.1976 71.6621 41.3252 70.8418H42.6445ZM48.8105 74C48.7376 73.8542 48.6784 73.5944 48.6328 73.2207C48.0449 73.8314 47.3431 74.1367 46.5273 74.1367C45.7982 74.1367 45.1989 73.9316 44.7295 73.5215C44.2646 73.1068 44.0322 72.5827 44.0322 71.9492C44.0322 71.179 44.3239 70.582 44.9072 70.1582C45.4951 69.7298 46.32 69.5156 47.3818 69.5156H48.6123V68.9346C48.6123 68.4925 48.4801 68.1416 48.2158 67.8818C47.9515 67.6175 47.5618 67.4854 47.0469 67.4854C46.5957 67.4854 46.2174 67.5993 45.9121 67.8271C45.6068 68.055 45.4541 68.3307 45.4541 68.6543H44.1826C44.1826 68.2852 44.3125 67.9297 44.5723 67.5879C44.8366 67.2415 45.1921 66.9681 45.6387 66.7676C46.0898 66.5671 46.5843 66.4668 47.1221 66.4668C47.9743 66.4668 48.6419 66.681 49.125 67.1094C49.6081 67.5332 49.8587 68.1188 49.877 68.8662V72.2705C49.877 72.9495 49.9635 73.4896 50.1367 73.8906V74H48.8105ZM46.7119 73.0361C47.1084 73.0361 47.4844 72.9336 47.8398 72.7285C48.1953 72.5234 48.4528 72.2568 48.6123 71.9287V70.4111H47.6211C46.0716 70.4111 45.2969 70.8646 45.2969 71.7715C45.2969 72.168 45.429 72.4779 45.6934 72.7012C45.9577 72.9245 46.2972 73.0361 46.7119 73.0361ZM56.166 72.0381C56.166 71.6963 56.0361 71.432 55.7764 71.2451C55.5212 71.0537 55.0723 70.8896 54.4297 70.7529C53.7917 70.6162 53.2835 70.4521 52.9053 70.2607C52.5316 70.0693 52.2536 69.8415 52.0713 69.5771C51.8936 69.3128 51.8047 68.9984 51.8047 68.6338C51.8047 68.0277 52.0599 67.515 52.5703 67.0957C53.0853 66.6764 53.7415 66.4668 54.5391 66.4668C55.3776 66.4668 56.0566 66.6833 56.5762 67.1162C57.1003 67.5492 57.3623 68.1029 57.3623 68.7773H56.0908C56.0908 68.431 55.9427 68.1325 55.6465 67.8818C55.3548 67.6312 54.9857 67.5059 54.5391 67.5059C54.0788 67.5059 53.7188 67.6061 53.459 67.8066C53.1992 68.0072 53.0693 68.2692 53.0693 68.5928C53.0693 68.8981 53.1901 69.1283 53.4316 69.2832C53.6732 69.4382 54.1084 69.5863 54.7373 69.7275C55.3708 69.8688 55.8835 70.0374 56.2754 70.2334C56.6673 70.4294 56.9567 70.6663 57.1436 70.9443C57.335 71.2178 57.4307 71.5527 57.4307 71.9492C57.4307 72.61 57.1663 73.141 56.6377 73.542C56.109 73.9385 55.4232 74.1367 54.5801 74.1367C53.9876 74.1367 53.4635 74.0319 53.0078 73.8223C52.5521 73.6126 52.1943 73.321 51.9346 72.9473C51.6794 72.569 51.5518 72.1611 51.5518 71.7236H52.8164C52.8392 72.1475 53.0078 72.4847 53.3223 72.7354C53.6413 72.9814 54.0605 73.1045 54.5801 73.1045C55.0586 73.1045 55.4414 73.0088 55.7285 72.8174C56.0202 72.6214 56.166 72.3617 56.166 72.0381ZM60.3428 67.499C60.9033 66.8109 61.6325 66.4668 62.5303 66.4668C64.0934 66.4668 64.8818 67.3486 64.8955 69.1123V74H63.6309V69.1055C63.6263 68.5723 63.5033 68.1781 63.2617 67.9229C63.0247 67.6676 62.6533 67.54 62.1475 67.54C61.7373 67.54 61.3773 67.6494 61.0674 67.8682C60.7575 68.0869 60.516 68.374 60.3428 68.7295V74H59.0781V63.5H60.3428V67.499ZM30.9346 88.1035V92H29.6221V82.0469H33.293C34.3822 82.0469 35.2344 82.3249 35.8496 82.8809C36.4694 83.4368 36.7793 84.1729 36.7793 85.0889C36.7793 86.055 36.4762 86.8001 35.8701 87.3242C35.2686 87.8438 34.4049 88.1035 33.2793 88.1035H30.9346ZM30.9346 87.0303H33.293C33.9948 87.0303 34.5326 86.8662 34.9062 86.5381C35.2799 86.2054 35.4668 85.7269 35.4668 85.1025C35.4668 84.5101 35.2799 84.0361 34.9062 83.6807C34.5326 83.3252 34.0199 83.1406 33.3682 83.127H30.9346V87.0303ZM42.7402 92C42.6673 91.8542 42.6081 91.5944 42.5625 91.2207C41.9746 91.8314 41.2728 92.1367 40.457 92.1367C39.7279 92.1367 39.1286 91.9316 38.6592 91.5215C38.1943 91.1068 37.9619 90.5827 37.9619 89.9492C37.9619 89.179 38.2536 88.582 38.8369 88.1582C39.4248 87.7298 40.2497 87.5156 41.3115 87.5156H42.542V86.9346C42.542 86.4925 42.4098 86.1416 42.1455 85.8818C41.8812 85.6175 41.4915 85.4854 40.9766 85.4854C40.5254 85.4854 40.1471 85.5993 39.8418 85.8271C39.5365 86.055 39.3838 86.3307 39.3838 86.6543H38.1123C38.1123 86.2852 38.2422 85.9297 38.502 85.5879C38.7663 85.2415 39.1217 84.9681 39.5684 84.7676C40.0195 84.5671 40.514 84.4668 41.0518 84.4668C41.904 84.4668 42.5716 84.681 43.0547 85.1094C43.5378 85.5332 43.7884 86.1188 43.8066 86.8662V90.2705C43.8066 90.9495 43.8932 91.4896 44.0664 91.8906V92H42.7402ZM40.6416 91.0361C41.0381 91.0361 41.4141 90.9336 41.7695 90.7285C42.125 90.5234 42.3825 90.2568 42.542 89.9287V88.4111H41.5508C40.0013 88.4111 39.2266 88.8646 39.2266 89.7715C39.2266 90.168 39.3587 90.4779 39.623 90.7012C39.8874 90.9245 40.2269 91.0361 40.6416 91.0361ZM48.0996 90.1475L49.8223 84.6035H51.1758L48.2021 93.1416C47.7419 94.3721 47.0104 94.9873 46.0078 94.9873L45.7686 94.9668L45.2969 94.8779V93.8525L45.6387 93.8799C46.0671 93.8799 46.3997 93.7933 46.6367 93.6201C46.8783 93.4469 47.0765 93.1302 47.2314 92.6699L47.5117 91.918L44.873 84.6035H46.2539L48.0996 90.1475ZM51.8662 88.2334C51.8662 87.5088 52.0075 86.8571 52.29 86.2783C52.5771 85.6995 52.9736 85.2529 53.4795 84.9385C53.9899 84.624 54.571 84.4668 55.2227 84.4668C56.2298 84.4668 57.0433 84.8154 57.6631 85.5127C58.2874 86.21 58.5996 87.1374 58.5996 88.2949V88.3838C58.5996 89.1038 58.4606 89.751 58.1826 90.3252C57.9092 90.8949 57.515 91.3392 57 91.6582C56.4896 91.9772 55.9017 92.1367 55.2363 92.1367C54.2337 92.1367 53.4202 91.7881 52.7959 91.0908C52.1761 90.3936 51.8662 89.4707 51.8662 88.3223V88.2334ZM53.1377 88.3838C53.1377 89.2041 53.3268 89.8626 53.7051 90.3594C54.0879 90.8561 54.5983 91.1045 55.2363 91.1045C55.8789 91.1045 56.3893 90.8538 56.7676 90.3525C57.1458 89.8467 57.335 89.1403 57.335 88.2334C57.335 87.4222 57.1413 86.766 56.7539 86.2646C56.3711 85.7588 55.8607 85.5059 55.2227 85.5059C54.5983 85.5059 54.0947 85.7542 53.7119 86.251C53.3291 86.7477 53.1377 87.4587 53.1377 88.3838ZM64.752 91.2686C64.2598 91.8473 63.5374 92.1367 62.585 92.1367C61.7965 92.1367 61.195 91.9089 60.7803 91.4531C60.3701 90.9928 60.1628 90.3138 60.1582 89.416V84.6035H61.4229V89.3818C61.4229 90.5029 61.8786 91.0635 62.79 91.0635C63.7562 91.0635 64.3988 90.7035 64.7178 89.9834V84.6035H65.9824V92H64.7793L64.752 91.2686ZM69.626 82.8125V84.6035H71.0068V85.5811H69.626V90.168C69.626 90.4642 69.6875 90.6875 69.8105 90.8379C69.9336 90.9837 70.1432 91.0566 70.4395 91.0566C70.5853 91.0566 70.7858 91.0293 71.041 90.9746V92C70.7083 92.0911 70.3848 92.1367 70.0703 92.1367C69.5052 92.1367 69.0791 91.9658 68.792 91.624C68.5049 91.2822 68.3613 90.7969 68.3613 90.168V85.5811H67.0146V84.6035H68.3613V82.8125H69.626Z" fill="#242424"/>
<circle cx="50" cy="28" r="28" fill="#F0F7FC"/>
<path d="M57 30V22C57 20.9 56.1 20 55 20H41C39.9 20 39 20.9 39 22V30C39 31.1 39.9 32 41 32H55C56.1 32 57 31.1 57 30ZM48 29C46.34 29 45 27.66 45 26C45 24.34 46.34 23 48 23C49.66 23 51 24.34 51 26C51 27.66 49.66 29 48 29ZM61 23V34C61 35.1 60.1 36 59 36H42V34H59V23H61Z" fill="#003A63"/>
<path d="M59 36C60.1 36 61 35.1 61 34V23H59V34H42V36H59Z" fill="#00AEEF"/>
</svg>
