<svg width="100" height="96" viewBox="0 0 100 96" fill="none" xmlns="http://www.w3.org/2000/svg">
<path d="M19.6006 70.8418C19.4775 71.8945 19.0879 72.708 18.4316 73.2822C17.7799 73.8519 16.9118 74.1367 15.8271 74.1367C14.6514 74.1367 13.708 73.7152 12.9971 72.8721C12.2907 72.029 11.9375 70.901 11.9375 69.4883V68.5312C11.9375 67.6061 12.1016 66.7926 12.4297 66.0908C12.7624 65.389 13.2318 64.8512 13.8379 64.4775C14.444 64.0993 15.1458 63.9102 15.9434 63.9102C17.0007 63.9102 17.8483 64.2064 18.4863 64.7988C19.1243 65.3867 19.4958 66.2025 19.6006 67.2461H18.2812C18.1673 66.4531 17.9189 65.8789 17.5361 65.5234C17.1579 65.168 16.627 64.9902 15.9434 64.9902C15.1048 64.9902 14.4463 65.3001 13.9678 65.9199C13.4938 66.5397 13.2568 67.4215 13.2568 68.5654V69.5293C13.2568 70.6094 13.4824 71.4684 13.9336 72.1064C14.3848 72.7445 15.016 73.0635 15.8271 73.0635C16.5563 73.0635 17.1146 72.8994 17.502 72.5713C17.8939 72.2386 18.1536 71.6621 18.2812 70.8418H19.6006ZM22.5742 74H21.3096V63.5H22.5742V74ZM25.9785 74H24.7139V66.6035H25.9785V74ZM24.6113 64.6416C24.6113 64.4365 24.6729 64.2633 24.7959 64.1221C24.9235 63.9808 25.1104 63.9102 25.3564 63.9102C25.6025 63.9102 25.7894 63.9808 25.917 64.1221C26.0446 64.2633 26.1084 64.4365 26.1084 64.6416C26.1084 64.8467 26.0446 65.0176 25.917 65.1543C25.7894 65.291 25.6025 65.3594 25.3564 65.3594C25.1104 65.3594 24.9235 65.291 24.7959 65.1543C24.6729 65.0176 24.6113 64.8467 24.6113 64.6416ZM31.0781 74.1367C30.0755 74.1367 29.2598 73.8086 28.6309 73.1523C28.002 72.4915 27.6875 71.6097 27.6875 70.5068V70.2744C27.6875 69.5407 27.8265 68.8867 28.1045 68.3125C28.387 67.7337 28.779 67.2826 29.2803 66.959C29.7861 66.6309 30.333 66.4668 30.9209 66.4668C31.8825 66.4668 32.6299 66.7835 33.1631 67.417C33.6963 68.0505 33.9629 68.9574 33.9629 70.1377V70.6641H28.9521C28.9704 71.3932 29.1823 71.9834 29.5879 72.4346C29.998 72.8812 30.5176 73.1045 31.1465 73.1045C31.5931 73.1045 31.9714 73.0133 32.2812 72.8311C32.5911 72.6488 32.8623 72.4072 33.0947 72.1064L33.8672 72.708C33.2474 73.6605 32.3177 74.1367 31.0781 74.1367ZM30.9209 67.5059C30.4105 67.5059 29.9821 67.6927 29.6357 68.0664C29.2894 68.4355 29.0752 68.9551 28.9932 69.625H32.6982V69.5293C32.6618 68.8867 32.4886 68.39 32.1787 68.0391C31.8688 67.6836 31.4495 67.5059 30.9209 67.5059ZM36.6289 66.6035L36.6699 67.5332C37.235 66.8223 37.9733 66.4668 38.8848 66.4668C40.4479 66.4668 41.2363 67.3486 41.25 69.1123V74H39.9854V69.1055C39.9808 68.5723 39.8577 68.1781 39.6162 67.9229C39.3792 67.6676 39.0078 67.54 38.502 67.54C38.0918 67.54 37.7318 67.6494 37.4219 67.8682C37.112 68.0869 36.8704 68.374 36.6973 68.7295V74H35.4326V66.6035H36.6289ZM44.873 64.8125V66.6035H46.2539V67.5811H44.873V72.168C44.873 72.4642 44.9346 72.6875 45.0576 72.8379C45.1807 72.9837 45.3903 73.0566 45.6865 73.0566C45.8324 73.0566 46.0329 73.0293 46.2881 72.9746V74C45.9554 74.0911 45.6318 74.1367 45.3174 74.1367C44.7523 74.1367 44.3262 73.9658 44.0391 73.624C43.752 73.2822 43.6084 72.7969 43.6084 72.168V67.5811H42.2617V66.6035H43.6084V64.8125H44.873ZM53.5547 70.8623L53.7461 72.1748L54.0264 70.9922L55.9951 64.0469H57.1025L59.0234 70.9922L59.2969 72.1953L59.5088 70.8555L61.0537 64.0469H62.373L59.96 74H58.7637L56.7129 66.7471L56.5557 65.9883L56.3984 66.7471L54.2725 74H53.0762L50.6699 64.0469H51.9824L53.5547 70.8623ZM67.9717 74C67.8988 73.8542 67.8395 73.5944 67.7939 73.2207C67.2061 73.8314 66.5042 74.1367 65.6885 74.1367C64.9593 74.1367 64.36 73.9316 63.8906 73.5215C63.4258 73.1068 63.1934 72.5827 63.1934 71.9492C63.1934 71.179 63.485 70.582 64.0684 70.1582C64.6562 69.7298 65.4811 69.5156 66.543 69.5156H67.7734V68.9346C67.7734 68.4925 67.6413 68.1416 67.377 67.8818C67.1126 67.6175 66.723 67.4854 66.208 67.4854C65.7568 67.4854 65.3786 67.5993 65.0732 67.8271C64.7679 68.055 64.6152 68.3307 64.6152 68.6543H63.3438C63.3438 68.2852 63.4736 67.9297 63.7334 67.5879C63.9977 67.2415 64.3532 66.9681 64.7998 66.7676C65.251 66.5671 65.7454 66.4668 66.2832 66.4668C67.1354 66.4668 67.8031 66.681 68.2861 67.1094C68.7692 67.5332 69.0199 68.1188 69.0381 68.8662V72.2705C69.0381 72.9495 69.1247 73.4896 69.2979 73.8906V74H67.9717ZM65.873 73.0361C66.2695 73.0361 66.6455 72.9336 67.001 72.7285C67.3564 72.5234 67.6139 72.2568 67.7734 71.9287V70.4111H66.7822C65.2327 70.4111 64.458 70.8646 64.458 71.7715C64.458 72.168 64.5902 72.4779 64.8545 72.7012C65.1188 72.9245 65.4583 73.0361 65.873 73.0361ZM72.3945 74H71.1299V63.5H72.3945V74ZM75.7988 74H74.5342V63.5H75.7988V74ZM80.8984 74.1367C79.8958 74.1367 79.0801 73.8086 78.4512 73.1523C77.8223 72.4915 77.5078 71.6097 77.5078 70.5068V70.2744C77.5078 69.5407 77.6468 68.8867 77.9248 68.3125C78.2074 67.7337 78.5993 67.2826 79.1006 66.959C79.6064 66.6309 80.1533 66.4668 80.7412 66.4668C81.7028 66.4668 82.4502 66.7835 82.9834 67.417C83.5166 68.0505 83.7832 68.9574 83.7832 70.1377V70.6641H78.7725C78.7907 71.3932 79.0026 71.9834 79.4082 72.4346C79.8184 72.8812 80.3379 73.1045 80.9668 73.1045C81.4134 73.1045 81.7917 73.0133 82.1016 72.8311C82.4115 72.6488 82.6826 72.4072 82.915 72.1064L83.6875 72.708C83.0677 73.6605 82.138 74.1367 80.8984 74.1367ZM80.7412 67.5059C80.2308 67.5059 79.8024 67.6927 79.4561 68.0664C79.1097 68.4355 78.8955 68.9551 78.8135 69.625H82.5186V69.5293C82.4821 68.8867 82.3089 68.39 81.999 68.0391C81.6891 67.6836 81.2699 67.5059 80.7412 67.5059ZM86.9688 64.8125V66.6035H88.3496V67.5811H86.9688V72.168C86.9688 72.4642 87.0303 72.6875 87.1533 72.8379C87.2764 72.9837 87.486 73.0566 87.7822 73.0566C87.9281 73.0566 88.1286 73.0293 88.3838 72.9746V74C88.0511 74.0911 87.7275 74.1367 87.4131 74.1367C86.848 74.1367 86.4219 73.9658 86.1348 73.624C85.8477 73.2822 85.7041 72.7969 85.7041 72.168V67.5811H84.3574V66.6035H85.7041V64.8125H86.9688ZM32.165 83.127H28.9658V92H27.6602V83.127H24.4678V82.0469H32.165V83.127ZM36.499 85.7383C36.3076 85.7064 36.1003 85.6904 35.877 85.6904C35.0475 85.6904 34.4847 86.0436 34.1885 86.75V92H32.9238V84.6035H34.1543L34.1748 85.458C34.5895 84.7972 35.1774 84.4668 35.9385 84.4668C36.1846 84.4668 36.3714 84.4987 36.499 84.5625V85.7383ZM41.9609 92C41.888 91.8542 41.8288 91.5944 41.7832 91.2207C41.1953 91.8314 40.4935 92.1367 39.6777 92.1367C38.9486 92.1367 38.3493 91.9316 37.8799 91.5215C37.415 91.1068 37.1826 90.5827 37.1826 89.9492C37.1826 89.179 37.4743 88.582 38.0576 88.1582C38.6455 87.7298 39.4704 87.5156 40.5322 87.5156H41.7627V86.9346C41.7627 86.4925 41.6305 86.1416 41.3662 85.8818C41.1019 85.6175 40.7122 85.4854 40.1973 85.4854C39.7461 85.4854 39.3678 85.5993 39.0625 85.8271C38.7572 86.055 38.6045 86.3307 38.6045 86.6543H37.333C37.333 86.2852 37.4629 85.9297 37.7227 85.5879C37.987 85.2415 38.3424 84.9681 38.7891 84.7676C39.2402 84.5671 39.7347 84.4668 40.2725 84.4668C41.1247 84.4668 41.7923 84.681 42.2754 85.1094C42.7585 85.5332 43.0091 86.1188 43.0273 86.8662V90.2705C43.0273 90.9495 43.1139 91.4896 43.2871 91.8906V92H41.9609ZM39.8623 91.0361C40.2588 91.0361 40.6348 90.9336 40.9902 90.7285C41.3457 90.5234 41.6032 90.2568 41.7627 89.9287V88.4111H40.7715C39.222 88.4111 38.4473 88.8646 38.4473 89.7715C38.4473 90.168 38.5794 90.4779 38.8438 90.7012C39.1081 90.9245 39.4476 91.0361 39.8623 91.0361ZM46.2061 84.6035L46.2471 85.5332C46.8122 84.8223 47.5505 84.4668 48.4619 84.4668C50.0251 84.4668 50.8135 85.3486 50.8271 87.1123V92H49.5625V87.1055C49.5579 86.5723 49.4349 86.1781 49.1934 85.9229C48.9564 85.6676 48.585 85.54 48.0791 85.54C47.6689 85.54 47.3089 85.6494 46.999 85.8682C46.6891 86.0869 46.4476 86.374 46.2744 86.7295V92H45.0098V84.6035H46.2061ZM57.041 90.0381C57.041 89.6963 56.9111 89.432 56.6514 89.2451C56.3962 89.0537 55.9473 88.8896 55.3047 88.7529C54.6667 88.6162 54.1585 88.4521 53.7803 88.2607C53.4066 88.0693 53.1286 87.8415 52.9463 87.5771C52.7686 87.3128 52.6797 86.9984 52.6797 86.6338C52.6797 86.0277 52.9349 85.515 53.4453 85.0957C53.9603 84.6764 54.6165 84.4668 55.4141 84.4668C56.2526 84.4668 56.9316 84.6833 57.4512 85.1162C57.9753 85.5492 58.2373 86.1029 58.2373 86.7773H56.9658C56.9658 86.431 56.8177 86.1325 56.5215 85.8818C56.2298 85.6312 55.8607 85.5059 55.4141 85.5059C54.9538 85.5059 54.5938 85.6061 54.334 85.8066C54.0742 86.0072 53.9443 86.2692 53.9443 86.5928C53.9443 86.8981 54.0651 87.1283 54.3066 87.2832C54.5482 87.4382 54.9834 87.5863 55.6123 87.7275C56.2458 87.8688 56.7585 88.0374 57.1504 88.2334C57.5423 88.4294 57.8317 88.6663 58.0186 88.9443C58.21 89.2178 58.3057 89.5527 58.3057 89.9492C58.3057 90.61 58.0413 91.141 57.5127 91.542C56.984 91.9385 56.2982 92.1367 55.4551 92.1367C54.8626 92.1367 54.3385 92.0319 53.8828 91.8223C53.4271 91.6126 53.0693 91.321 52.8096 90.9473C52.5544 90.569 52.4268 90.1611 52.4268 89.7236H53.6914C53.7142 90.1475 53.8828 90.4847 54.1973 90.7354C54.5163 90.9814 54.9355 91.1045 55.4551 91.1045C55.9336 91.1045 56.3164 91.0088 56.6035 90.8174C56.8952 90.6214 57.041 90.3617 57.041 90.0381ZM60.5752 92V85.5811H59.4062V84.6035H60.5752V83.8447C60.5752 83.0518 60.7871 82.4388 61.2109 82.0059C61.6348 81.5729 62.234 81.3564 63.0088 81.3564C63.3005 81.3564 63.5898 81.3952 63.877 81.4727L63.8086 82.498C63.5944 82.457 63.3665 82.4365 63.125 82.4365C62.7148 82.4365 62.3981 82.5573 62.1748 82.7988C61.9515 83.0358 61.8398 83.3776 61.8398 83.8242V84.6035H63.4189V85.5811H61.8398V92H60.5752ZM67.7256 92.1367C66.723 92.1367 65.9072 91.8086 65.2783 91.1523C64.6494 90.4915 64.335 89.6097 64.335 88.5068V88.2744C64.335 87.5407 64.474 86.8867 64.752 86.3125C65.0345 85.7337 65.4264 85.2826 65.9277 84.959C66.4336 84.6309 66.9805 84.4668 67.5684 84.4668C68.5299 84.4668 69.2773 84.7835 69.8105 85.417C70.3438 86.0505 70.6104 86.9574 70.6104 88.1377V88.6641H65.5996C65.6178 89.3932 65.8298 89.9834 66.2354 90.4346C66.6455 90.8812 67.165 91.1045 67.7939 91.1045C68.2406 91.1045 68.6188 91.0133 68.9287 90.8311C69.2386 90.6488 69.5098 90.4072 69.7422 90.1064L70.5146 90.708C69.8949 91.6605 68.9652 92.1367 67.7256 92.1367ZM67.5684 85.5059C67.0579 85.5059 66.6296 85.6927 66.2832 86.0664C65.9368 86.4355 65.7227 86.9551 65.6406 87.625H69.3457V87.5293C69.3092 86.8867 69.1361 86.39 68.8262 86.0391C68.5163 85.6836 68.097 85.5059 67.5684 85.5059ZM75.6553 85.7383C75.4639 85.7064 75.2565 85.6904 75.0332 85.6904C74.2038 85.6904 73.641 86.0436 73.3447 86.75V92H72.0801V84.6035H73.3105L73.3311 85.458C73.7458 84.7972 74.3337 84.4668 75.0947 84.4668C75.3408 84.4668 75.5277 84.4987 75.6553 84.5625V85.7383Z" fill="#242424"/>
<circle cx="50" cy="28" r="28" fill="#F0F7FC"/>
<path d="M59 34V35C59 36.1 58.1 37 57 37H43C41.89 37 41 36.1 41 35V21C41 19.9 41.89 19 43 19H57C58.1 19 59 19.9 59 21V22H50C48.89 22 48 22.9 48 24V32C48 33.1 48.89 34 50 34H59ZM50 32H60V24H50V32ZM54 29.5C53.17 29.5 52.5 28.83 52.5 28C52.5 27.17 53.17 26.5 54 26.5C54.83 26.5 55.5 27.17 55.5 28C55.5 28.83 54.83 29.5 54 29.5Z" fill="#003A63"/>
<path fill-rule="evenodd" clip-rule="evenodd" d="M50 32H60V24H50V32ZM54 29.5C53.17 29.5 52.5 28.83 52.5 28C52.5 27.17 53.17 26.5 54 26.5C54.83 26.5 55.5 27.17 55.5 28C55.5 28.83 54.83 29.5 54 29.5Z" fill="#00AEEF"/>
</svg>
