<svg width="24" height="18" viewBox="0 0 24 18" fill="none" xmlns="http://www.w3.org/2000/svg">
<path d="M0 0H24V6H0V0Z" fill="#FF9933"/>
<path d="M0 6H24V12H0V6Z" fill="white"/>
<path d="M0 12H24V18H0V12Z" fill="#128807"/>
<path d="M12 11.4C13.3255 11.4 14.4 10.3255 14.4 9.00001C14.4 7.67452 13.3255 6.60001 12 6.60001C10.6745 6.60001 9.59998 7.67452 9.59998 9.00001C9.59998 10.3255 10.6745 11.4 12 11.4Z" fill="#000088"/>
<path d="M12 11.1C13.1598 11.1 14.1 10.1598 14.1 8.99999C14.1 7.8402 13.1598 6.89999 12 6.89999C10.8402 6.89999 9.90002 7.8402 9.90002 8.99999C9.90002 10.1598 10.8402 11.1 12 11.1Z" fill="white"/>
<path d="M12 9.41993C12.2319 9.41993 12.42 9.23189 12.42 8.99993C12.42 8.76797 12.2319 8.57993 12 8.57993C11.768 8.57993 11.58 8.76797 11.58 8.99993C11.58 9.23189 11.768 9.41993 12 9.41993Z" fill="#000088"/>
</svg>
