<svg width="100" height="96" viewBox="0 0 100 96" fill="none" xmlns="http://www.w3.org/2000/svg">
<path d="M9.01855 64.0469L12.2725 72.168L15.5264 64.0469H17.2285V74H15.916V70.124L16.0391 65.9404L12.7715 74H11.7666L8.50586 65.9609L8.63574 70.124V74H7.32324V64.0469H9.01855ZM19.0127 70.2334C19.0127 69.5088 19.154 68.8571 19.4365 68.2783C19.7236 67.6995 20.1201 67.2529 20.626 66.9385C21.1364 66.624 21.7174 66.4668 22.3691 66.4668C23.3763 66.4668 24.1898 66.8154 24.8096 67.5127C25.4339 68.21 25.7461 69.1374 25.7461 70.2949V70.3838C25.7461 71.1038 25.6071 71.751 25.3291 72.3252C25.0557 72.8949 24.6615 73.3392 24.1465 73.6582C23.6361 73.9772 23.0482 74.1367 22.3828 74.1367C21.3802 74.1367 20.5667 73.7881 19.9424 73.0908C19.3226 72.3936 19.0127 71.4707 19.0127 70.3223V70.2334ZM20.2842 70.3838C20.2842 71.2041 20.4733 71.8626 20.8516 72.3594C21.2344 72.8561 21.7448 73.1045 22.3828 73.1045C23.0254 73.1045 23.5358 72.8538 23.9141 72.3525C24.2923 71.8467 24.4814 71.1403 24.4814 70.2334C24.4814 69.4222 24.2878 68.766 23.9004 68.2646C23.5176 67.7588 23.0072 67.5059 22.3691 67.5059C21.7448 67.5059 21.2412 67.7542 20.8584 68.251C20.4756 68.7477 20.2842 69.4587 20.2842 70.3838ZM33.5938 70.3838C33.5938 71.514 33.334 72.4232 32.8145 73.1113C32.2949 73.7949 31.5977 74.1367 30.7227 74.1367C29.7884 74.1367 29.0661 73.8063 28.5557 73.1455L28.4941 74H27.332V63.5H28.5967V67.417C29.1071 66.7835 29.8112 66.4668 30.709 66.4668C31.6068 66.4668 32.3109 66.8063 32.8213 67.4854C33.3363 68.1644 33.5938 69.0941 33.5938 70.2744V70.3838ZM32.3291 70.2402C32.3291 69.3789 32.1628 68.7135 31.8301 68.2441C31.4974 67.7747 31.0189 67.54 30.3945 67.54C29.5605 67.54 28.9613 67.9274 28.5967 68.7021V71.9014C28.984 72.6761 29.5879 73.0635 30.4082 73.0635C31.0143 73.0635 31.486 72.8288 31.8232 72.3594C32.1605 71.89 32.3291 71.1836 32.3291 70.2402ZM36.5674 74H35.3027V66.6035H36.5674V74ZM35.2002 64.6416C35.2002 64.4365 35.2617 64.2633 35.3848 64.1221C35.5124 63.9808 35.6992 63.9102 35.9453 63.9102C36.1914 63.9102 36.3783 63.9808 36.5059 64.1221C36.6335 64.2633 36.6973 64.4365 36.6973 64.6416C36.6973 64.8467 36.6335 65.0176 36.5059 65.1543C36.3783 65.291 36.1914 65.3594 35.9453 65.3594C35.6992 65.3594 35.5124 65.291 35.3848 65.1543C35.2617 65.0176 35.2002 64.8467 35.2002 64.6416ZM39.9717 74H38.707V63.5H39.9717V74ZM45.0713 74.1367C44.0687 74.1367 43.2529 73.8086 42.624 73.1523C41.9951 72.4915 41.6807 71.6097 41.6807 70.5068V70.2744C41.6807 69.5407 41.8197 68.8867 42.0977 68.3125C42.3802 67.7337 42.7721 67.2826 43.2734 66.959C43.7793 66.6309 44.3262 66.4668 44.9141 66.4668C45.8757 66.4668 46.623 66.7835 47.1562 67.417C47.6895 68.0505 47.9561 68.9574 47.9561 70.1377V70.6641H42.9453C42.9635 71.3932 43.1755 71.9834 43.5811 72.4346C43.9912 72.8812 44.5107 73.1045 45.1396 73.1045C45.5863 73.1045 45.9645 73.0133 46.2744 72.8311C46.5843 72.6488 46.8555 72.4072 47.0879 72.1064L47.8604 72.708C47.2406 73.6605 46.3109 74.1367 45.0713 74.1367ZM44.9141 67.5059C44.4036 67.5059 43.9753 67.6927 43.6289 68.0664C43.2826 68.4355 43.0684 68.9551 42.9863 69.625H46.6914V69.5293C46.6549 68.8867 46.4818 68.39 46.1719 68.0391C45.862 67.6836 45.4427 67.5059 44.9141 67.5059ZM54.792 64.0469L58.0459 72.168L61.2998 64.0469H63.002V74H61.6895V70.124L61.8125 65.9404L58.5449 74H57.54L54.2793 65.9609L54.4092 70.124V74H53.0967V64.0469H54.792ZM64.7861 70.2334C64.7861 69.5088 64.9274 68.8571 65.21 68.2783C65.4971 67.6995 65.8936 67.2529 66.3994 66.9385C66.9098 66.624 67.4909 66.4668 68.1426 66.4668C69.1497 66.4668 69.9632 66.8154 70.583 67.5127C71.2074 68.21 71.5195 69.1374 71.5195 70.2949V70.3838C71.5195 71.1038 71.3805 71.751 71.1025 72.3252C70.8291 72.8949 70.4349 73.3392 69.9199 73.6582C69.4095 73.9772 68.8216 74.1367 68.1562 74.1367C67.1536 74.1367 66.3402 73.7881 65.7158 73.0908C65.096 72.3936 64.7861 71.4707 64.7861 70.3223V70.2334ZM66.0576 70.3838C66.0576 71.2041 66.2467 71.8626 66.625 72.3594C67.0078 72.8561 67.5182 73.1045 68.1562 73.1045C68.7988 73.1045 69.3092 72.8538 69.6875 72.3525C70.0658 71.8467 70.2549 71.1403 70.2549 70.2334C70.2549 69.4222 70.0612 68.766 69.6738 68.2646C69.291 67.7588 68.7806 67.5059 68.1426 67.5059C67.5182 67.5059 67.0146 67.7542 66.6318 68.251C66.249 68.7477 66.0576 69.4587 66.0576 70.3838ZM74.3018 66.6035L74.3428 67.5332C74.9079 66.8223 75.6462 66.4668 76.5576 66.4668C78.1208 66.4668 78.9092 67.3486 78.9229 69.1123V74H77.6582V69.1055C77.6536 68.5723 77.5306 68.1781 77.2891 67.9229C77.0521 67.6676 76.6807 67.54 76.1748 67.54C75.7646 67.54 75.4046 67.6494 75.0947 67.8682C74.7848 68.0869 74.5433 68.374 74.3701 68.7295V74H73.1055V66.6035H74.3018ZM83.8994 74.1367C82.8968 74.1367 82.0811 73.8086 81.4521 73.1523C80.8232 72.4915 80.5088 71.6097 80.5088 70.5068V70.2744C80.5088 69.5407 80.6478 68.8867 80.9258 68.3125C81.2083 67.7337 81.6003 67.2826 82.1016 66.959C82.6074 66.6309 83.1543 66.4668 83.7422 66.4668C84.7038 66.4668 85.4512 66.7835 85.9844 67.417C86.5176 68.0505 86.7842 68.9574 86.7842 70.1377V70.6641H81.7734C81.7917 71.3932 82.0036 71.9834 82.4092 72.4346C82.8193 72.8812 83.3389 73.1045 83.9678 73.1045C84.4144 73.1045 84.7926 73.0133 85.1025 72.8311C85.4124 72.6488 85.6836 72.4072 85.916 72.1064L86.6885 72.708C86.0687 73.6605 85.139 74.1367 83.8994 74.1367ZM83.7422 67.5059C83.2318 67.5059 82.8034 67.6927 82.457 68.0664C82.1107 68.4355 81.8965 68.9551 81.8145 69.625H85.5195V69.5293C85.4831 68.8867 85.3099 68.39 85 68.0391C84.6901 67.6836 84.2708 67.5059 83.7422 67.5059ZM90.5781 72.1475L92.3008 66.6035H93.6543L90.6807 75.1416C90.2204 76.3721 89.4889 76.9873 88.4863 76.9873L88.2471 76.9668L87.7754 76.8779V75.8525L88.1172 75.8799C88.5456 75.8799 88.8783 75.7933 89.1152 75.6201C89.3568 75.4469 89.555 75.1302 89.71 74.6699L89.9902 73.918L87.3516 66.6035H88.7324L90.5781 72.1475ZM32.165 83.127H28.9658V92H27.6602V83.127H24.4678V82.0469H32.165V83.127ZM36.499 85.7383C36.3076 85.7064 36.1003 85.6904 35.877 85.6904C35.0475 85.6904 34.4847 86.0436 34.1885 86.75V92H32.9238V84.6035H34.1543L34.1748 85.458C34.5895 84.7972 35.1774 84.4668 35.9385 84.4668C36.1846 84.4668 36.3714 84.4987 36.499 84.5625V85.7383ZM41.9609 92C41.888 91.8542 41.8288 91.5944 41.7832 91.2207C41.1953 91.8314 40.4935 92.1367 39.6777 92.1367C38.9486 92.1367 38.3493 91.9316 37.8799 91.5215C37.415 91.1068 37.1826 90.5827 37.1826 89.9492C37.1826 89.179 37.4743 88.582 38.0576 88.1582C38.6455 87.7298 39.4704 87.5156 40.5322 87.5156H41.7627V86.9346C41.7627 86.4925 41.6305 86.1416 41.3662 85.8818C41.1019 85.6175 40.7122 85.4854 40.1973 85.4854C39.7461 85.4854 39.3678 85.5993 39.0625 85.8271C38.7572 86.055 38.6045 86.3307 38.6045 86.6543H37.333C37.333 86.2852 37.4629 85.9297 37.7227 85.5879C37.987 85.2415 38.3424 84.9681 38.7891 84.7676C39.2402 84.5671 39.7347 84.4668 40.2725 84.4668C41.1247 84.4668 41.7923 84.681 42.2754 85.1094C42.7585 85.5332 43.0091 86.1188 43.0273 86.8662V90.2705C43.0273 90.9495 43.1139 91.4896 43.2871 91.8906V92H41.9609ZM39.8623 91.0361C40.2588 91.0361 40.6348 90.9336 40.9902 90.7285C41.3457 90.5234 41.6032 90.2568 41.7627 89.9287V88.4111H40.7715C39.222 88.4111 38.4473 88.8646 38.4473 89.7715C38.4473 90.168 38.5794 90.4779 38.8438 90.7012C39.1081 90.9245 39.4476 91.0361 39.8623 91.0361ZM46.2061 84.6035L46.2471 85.5332C46.8122 84.8223 47.5505 84.4668 48.4619 84.4668C50.0251 84.4668 50.8135 85.3486 50.8271 87.1123V92H49.5625V87.1055C49.5579 86.5723 49.4349 86.1781 49.1934 85.9229C48.9564 85.6676 48.585 85.54 48.0791 85.54C47.6689 85.54 47.3089 85.6494 46.999 85.8682C46.6891 86.0869 46.4476 86.374 46.2744 86.7295V92H45.0098V84.6035H46.2061ZM57.041 90.0381C57.041 89.6963 56.9111 89.432 56.6514 89.2451C56.3962 89.0537 55.9473 88.8896 55.3047 88.7529C54.6667 88.6162 54.1585 88.4521 53.7803 88.2607C53.4066 88.0693 53.1286 87.8415 52.9463 87.5771C52.7686 87.3128 52.6797 86.9984 52.6797 86.6338C52.6797 86.0277 52.9349 85.515 53.4453 85.0957C53.9603 84.6764 54.6165 84.4668 55.4141 84.4668C56.2526 84.4668 56.9316 84.6833 57.4512 85.1162C57.9753 85.5492 58.2373 86.1029 58.2373 86.7773H56.9658C56.9658 86.431 56.8177 86.1325 56.5215 85.8818C56.2298 85.6312 55.8607 85.5059 55.4141 85.5059C54.9538 85.5059 54.5938 85.6061 54.334 85.8066C54.0742 86.0072 53.9443 86.2692 53.9443 86.5928C53.9443 86.8981 54.0651 87.1283 54.3066 87.2832C54.5482 87.4382 54.9834 87.5863 55.6123 87.7275C56.2458 87.8688 56.7585 88.0374 57.1504 88.2334C57.5423 88.4294 57.8317 88.6663 58.0186 88.9443C58.21 89.2178 58.3057 89.5527 58.3057 89.9492C58.3057 90.61 58.0413 91.141 57.5127 91.542C56.984 91.9385 56.2982 92.1367 55.4551 92.1367C54.8626 92.1367 54.3385 92.0319 53.8828 91.8223C53.4271 91.6126 53.0693 91.321 52.8096 90.9473C52.5544 90.569 52.4268 90.1611 52.4268 89.7236H53.6914C53.7142 90.1475 53.8828 90.4847 54.1973 90.7354C54.5163 90.9814 54.9355 91.1045 55.4551 91.1045C55.9336 91.1045 56.3164 91.0088 56.6035 90.8174C56.8952 90.6214 57.041 90.3617 57.041 90.0381ZM60.5752 92V85.5811H59.4062V84.6035H60.5752V83.8447C60.5752 83.0518 60.7871 82.4388 61.2109 82.0059C61.6348 81.5729 62.234 81.3564 63.0088 81.3564C63.3005 81.3564 63.5898 81.3952 63.877 81.4727L63.8086 82.498C63.5944 82.457 63.3665 82.4365 63.125 82.4365C62.7148 82.4365 62.3981 82.5573 62.1748 82.7988C61.9515 83.0358 61.8398 83.3776 61.8398 83.8242V84.6035H63.4189V85.5811H61.8398V92H60.5752ZM67.7256 92.1367C66.723 92.1367 65.9072 91.8086 65.2783 91.1523C64.6494 90.4915 64.335 89.6097 64.335 88.5068V88.2744C64.335 87.5407 64.474 86.8867 64.752 86.3125C65.0345 85.7337 65.4264 85.2826 65.9277 84.959C66.4336 84.6309 66.9805 84.4668 67.5684 84.4668C68.5299 84.4668 69.2773 84.7835 69.8105 85.417C70.3438 86.0505 70.6104 86.9574 70.6104 88.1377V88.6641H65.5996C65.6178 89.3932 65.8298 89.9834 66.2354 90.4346C66.6455 90.8812 67.165 91.1045 67.7939 91.1045C68.2406 91.1045 68.6188 91.0133 68.9287 90.8311C69.2386 90.6488 69.5098 90.4072 69.7422 90.1064L70.5146 90.708C69.8949 91.6605 68.9652 92.1367 67.7256 92.1367ZM67.5684 85.5059C67.0579 85.5059 66.6296 85.6927 66.2832 86.0664C65.9368 86.4355 65.7227 86.9551 65.6406 87.625H69.3457V87.5293C69.3092 86.8867 69.1361 86.39 68.8262 86.0391C68.5163 85.6836 68.097 85.5059 67.5684 85.5059ZM75.6553 85.7383C75.4639 85.7064 75.2565 85.6904 75.0332 85.6904C74.2038 85.6904 73.641 86.0436 73.3447 86.75V92H72.0801V84.6035H73.3105L73.3311 85.458C73.7458 84.7972 74.3337 84.4668 75.0947 84.4668C75.3408 84.4668 75.5277 84.4987 75.6553 84.5625V85.7383Z" fill="#242424"/>
<circle cx="50" cy="28" r="28" fill="#F0F7FC"/>
<path d="M55 17H45C43.9 17 43 17.9 43 19V22H45V20H55V36H45V22H43V37C43 38.1 43.9 39 45 39H55C56.1 39 57 38.1 57 37V19C57 17.9 56.1 17 55 17Z" fill="#003A63"/>
<path d="M51 33H49V32H47V30H51V29H48C47.45 29 47 28.55 47 28V25C47 24.45 47.45 24 48 24H49V23H51V24H53V26H49V27H52C52.55 27 53 27.45 53 28V31C53 31.55 52.55 32 52 32H51V33Z" fill="#00AEEF"/>
</svg>
