<svg width="100" height="96" viewBox="0 0 100 96" fill="none" xmlns="http://www.w3.org/2000/svg">
<path d="M41.0244 70.1035V74H39.7119V64.0469H43.3828C44.472 64.0469 45.3242 64.3249 45.9395 64.8809C46.5592 65.4368 46.8691 66.1729 46.8691 67.0889C46.8691 68.055 46.5661 68.8001 45.96 69.3242C45.3584 69.8438 44.4948 70.1035 43.3691 70.1035H41.0244ZM41.0244 69.0303H43.3828C44.0846 69.0303 44.6224 68.8662 44.9961 68.5381C45.3698 68.2054 45.5566 67.7269 45.5566 67.1025C45.5566 66.5101 45.3698 66.0361 44.9961 65.6807C44.6224 65.3252 44.1097 65.1406 43.458 65.127H41.0244V69.0303ZM52.8301 74C52.7572 73.8542 52.6979 73.5944 52.6523 73.2207C52.0645 73.8314 51.3626 74.1367 50.5469 74.1367C49.8177 74.1367 49.2184 73.9316 48.749 73.5215C48.2842 73.1068 48.0518 72.5827 48.0518 71.9492C48.0518 71.179 48.3434 70.582 48.9268 70.1582C49.5146 69.7298 50.3395 69.5156 51.4014 69.5156H52.6318V68.9346C52.6318 68.4925 52.4997 68.1416 52.2354 67.8818C51.971 67.6175 51.5814 67.4854 51.0664 67.4854C50.6152 67.4854 50.237 67.5993 49.9316 67.8271C49.6263 68.055 49.4736 68.3307 49.4736 68.6543H48.2021C48.2021 68.2852 48.332 67.9297 48.5918 67.5879C48.8561 67.2415 49.2116 66.9681 49.6582 66.7676C50.1094 66.5671 50.6038 66.4668 51.1416 66.4668C51.9938 66.4668 52.6615 66.681 53.1445 67.1094C53.6276 67.5332 53.8783 68.1188 53.8965 68.8662V72.2705C53.8965 72.9495 53.9831 73.4896 54.1562 73.8906V74H52.8301ZM50.7314 73.0361C51.1279 73.0361 51.5039 72.9336 51.8594 72.7285C52.2148 72.5234 52.4723 72.2568 52.6318 71.9287V70.4111H51.6406C50.0911 70.4111 49.3164 70.8646 49.3164 71.7715C49.3164 72.168 49.4486 72.4779 49.7129 72.7012C49.9772 72.9245 50.3167 73.0361 50.7314 73.0361ZM58.1895 72.1475L59.9121 66.6035H61.2656L58.292 75.1416C57.8317 76.3721 57.1003 76.9873 56.0977 76.9873L55.8584 76.9668L55.3867 76.8779V75.8525L55.7285 75.8799C56.1569 75.8799 56.4896 75.7933 56.7266 75.6201C56.9681 75.4469 57.1663 75.1302 57.3213 74.6699L57.6016 73.918L54.9629 66.6035H56.3438L58.1895 72.1475ZM28.6104 82.0469L31.8643 90.168L35.1182 82.0469H36.8203V92H35.5078V88.124L35.6309 83.9404L32.3633 92H31.3584L28.0977 83.9609L28.2275 88.124V92H26.915V82.0469H28.6104ZM41.3594 90.1475L43.082 84.6035H44.4355L41.4619 93.1416C41.0016 94.3721 40.2702 94.9873 39.2676 94.9873L39.0283 94.9668L38.5566 94.8779V93.8525L38.8984 93.8799C39.3268 93.8799 39.6595 93.7933 39.8965 93.6201C40.138 93.4469 40.3363 93.1302 40.4912 92.6699L40.7715 91.918L38.1328 84.6035H39.5137L41.3594 90.1475ZM49.2412 92V82.0469H52.4951C53.5752 82.0469 54.3864 82.2702 54.9287 82.7168C55.4756 83.1634 55.749 83.8242 55.749 84.6992C55.749 85.1641 55.6169 85.5765 55.3525 85.9365C55.0882 86.292 54.7282 86.5677 54.2725 86.7637C54.8102 86.9141 55.234 87.2012 55.5439 87.625C55.8584 88.0443 56.0156 88.5456 56.0156 89.1289C56.0156 90.0221 55.7262 90.724 55.1475 91.2344C54.5687 91.7448 53.7507 92 52.6934 92H49.2412ZM50.5537 87.3447V90.9268H52.7207C53.3314 90.9268 53.8122 90.7695 54.1631 90.4551C54.5186 90.1361 54.6963 89.6986 54.6963 89.1426C54.6963 87.944 54.0446 87.3447 52.7412 87.3447H50.5537ZM50.5537 86.292H52.5361C53.1104 86.292 53.5684 86.1484 53.9102 85.8613C54.2565 85.5742 54.4297 85.1846 54.4297 84.6924C54.4297 84.1455 54.2702 83.749 53.9512 83.5029C53.6322 83.2523 53.1468 83.127 52.4951 83.127H50.5537V86.292ZM59.1396 92H57.875V84.6035H59.1396V92ZM57.7725 82.6416C57.7725 82.4365 57.834 82.2633 57.957 82.1221C58.0846 81.9808 58.2715 81.9102 58.5176 81.9102C58.7637 81.9102 58.9505 81.9808 59.0781 82.1221C59.2057 82.2633 59.2695 82.4365 59.2695 82.6416C59.2695 82.8467 59.2057 83.0176 59.0781 83.1543C58.9505 83.291 58.7637 83.3594 58.5176 83.3594C58.2715 83.3594 58.0846 83.291 57.957 83.1543C57.834 83.0176 57.7725 82.8467 57.7725 82.6416ZM62.5439 92H61.2793V81.5H62.5439V92ZM65.9482 92H64.6836V81.5H65.9482V92ZM72.2852 90.0381C72.2852 89.6963 72.1553 89.432 71.8955 89.2451C71.6403 89.0537 71.1914 88.8896 70.5488 88.7529C69.9108 88.6162 69.4027 88.4521 69.0244 88.2607C68.6507 88.0693 68.3727 87.8415 68.1904 87.5771C68.0127 87.3128 67.9238 86.9984 67.9238 86.6338C67.9238 86.0277 68.179 85.515 68.6895 85.0957C69.2044 84.6764 69.8607 84.4668 70.6582 84.4668C71.4967 84.4668 72.1758 84.6833 72.6953 85.1162C73.2194 85.5492 73.4814 86.1029 73.4814 86.7773H72.21C72.21 86.431 72.0618 86.1325 71.7656 85.8818C71.474 85.6312 71.1048 85.5059 70.6582 85.5059C70.1979 85.5059 69.8379 85.6061 69.5781 85.8066C69.3184 86.0072 69.1885 86.2692 69.1885 86.5928C69.1885 86.8981 69.3092 87.1283 69.5508 87.2832C69.7923 87.4382 70.2275 87.5863 70.8564 87.7275C71.4899 87.8688 72.0026 88.0374 72.3945 88.2334C72.7865 88.4294 73.0758 88.6663 73.2627 88.9443C73.4541 89.2178 73.5498 89.5527 73.5498 89.9492C73.5498 90.61 73.2855 91.141 72.7568 91.542C72.2282 91.9385 71.5423 92.1367 70.6992 92.1367C70.1068 92.1367 69.5827 92.0319 69.127 91.8223C68.6712 91.6126 68.3135 91.321 68.0537 90.9473C67.7985 90.569 67.6709 90.1611 67.6709 89.7236H68.9355C68.9583 90.1475 69.127 90.4847 69.4414 90.7354C69.7604 90.9814 70.1797 91.1045 70.6992 91.1045C71.1777 91.1045 71.5605 91.0088 71.8477 90.8174C72.1393 90.6214 72.2852 90.3617 72.2852 90.0381Z" fill="#242424"/>
<circle cx="50" cy="28" r="28" fill="#F0F7FC"/>
<path d="M57.5 19.5L56 18L54.5 19.5L53 18L51.5 19.5L50 18L48.5 19.5L47 18L45.5 19.5L44 18V32H41V35C41 36.66 42.34 38 44 38H56C57.66 38 59 36.66 59 35V18L57.5 19.5ZM57 35C57 35.55 56.55 36 56 36C55.45 36 55 35.55 55 35V32H46V21H57V35Z" fill="#003A63"/>
<path d="M53 23H47V25H53V23Z" fill="#00AEEF"/>
<path d="M56 23H54V25H56V23Z" fill="#00AEEF"/>
<path d="M53 26H47V28H53V26Z" fill="#00AEEF"/>
<path d="M56 26H54V28H56V26Z" fill="#00AEEF"/>
</svg>
