<svg width="100" height="96" viewBox="0 0 100 96" fill="none" xmlns="http://www.w3.org/2000/svg">
<path d="M28.6445 70.1035V74H27.332V64.0469H31.0029C32.0921 64.0469 32.9443 64.3249 33.5596 64.8809C34.1794 65.4368 34.4893 66.1729 34.4893 67.0889C34.4893 68.055 34.1862 68.8001 33.5801 69.3242C32.9785 69.8438 32.1149 70.1035 30.9893 70.1035H28.6445ZM28.6445 69.0303H31.0029C31.7048 69.0303 32.2425 68.8662 32.6162 68.5381C32.9899 68.2054 33.1768 67.7269 33.1768 67.1025C33.1768 66.5101 32.9899 66.0361 32.6162 65.6807C32.2425 65.3252 31.7298 65.1406 31.0781 65.127H28.6445V69.0303ZM39.541 67.7383C39.3496 67.7064 39.1423 67.6904 38.9189 67.6904C38.0895 67.6904 37.5267 68.0436 37.2305 68.75V74H35.9658V66.6035H37.1963L37.2168 67.458C37.6315 66.7972 38.2194 66.4668 38.9805 66.4668C39.2266 66.4668 39.4134 66.4987 39.541 66.5625V67.7383ZM43.6426 74.1367C42.64 74.1367 41.8242 73.8086 41.1953 73.1523C40.5664 72.4915 40.252 71.6097 40.252 70.5068V70.2744C40.252 69.5407 40.391 68.8867 40.6689 68.3125C40.9515 67.7337 41.3434 67.2826 41.8447 66.959C42.3506 66.6309 42.8975 66.4668 43.4854 66.4668C44.4469 66.4668 45.1943 66.7835 45.7275 67.417C46.2607 68.0505 46.5273 68.9574 46.5273 70.1377V70.6641H41.5166C41.5348 71.3932 41.7467 71.9834 42.1523 72.4346C42.5625 72.8812 43.082 73.1045 43.7109 73.1045C44.1576 73.1045 44.5358 73.0133 44.8457 72.8311C45.1556 72.6488 45.4268 72.4072 45.6592 72.1064L46.4316 72.708C45.8118 73.6605 44.8822 74.1367 43.6426 74.1367ZM43.4854 67.5059C42.9749 67.5059 42.5465 67.6927 42.2002 68.0664C41.8538 68.4355 41.6396 68.9551 41.5576 69.625H45.2627V69.5293C45.2262 68.8867 45.0531 68.39 44.7432 68.0391C44.4333 67.6836 44.014 67.5059 43.4854 67.5059ZM54.2451 70.3838C54.2451 71.5094 53.9876 72.4163 53.4727 73.1045C52.9577 73.7926 52.2604 74.1367 51.3809 74.1367C50.4831 74.1367 49.7767 73.8519 49.2617 73.2822V76.8438H47.9971V66.6035H49.1523L49.2139 67.4238C49.7288 66.7858 50.4443 66.4668 51.3604 66.4668C52.249 66.4668 52.9508 66.8018 53.4658 67.4717C53.9854 68.1416 54.2451 69.0736 54.2451 70.2676V70.3838ZM52.9805 70.2402C52.9805 69.4062 52.8027 68.7477 52.4473 68.2646C52.0918 67.7816 51.6042 67.54 50.9844 67.54C50.2188 67.54 49.6445 67.8796 49.2617 68.5586V72.0928C49.64 72.7673 50.2188 73.1045 50.998 73.1045C51.6042 73.1045 52.085 72.8652 52.4404 72.3867C52.8005 71.9036 52.9805 71.1882 52.9805 70.2402ZM60.4248 74C60.3519 73.8542 60.2926 73.5944 60.2471 73.2207C59.6592 73.8314 58.9574 74.1367 58.1416 74.1367C57.4124 74.1367 56.8132 73.9316 56.3438 73.5215C55.8789 73.1068 55.6465 72.5827 55.6465 71.9492C55.6465 71.179 55.9382 70.582 56.5215 70.1582C57.1094 69.7298 57.9342 69.5156 58.9961 69.5156H60.2266V68.9346C60.2266 68.4925 60.0944 68.1416 59.8301 67.8818C59.5658 67.6175 59.1761 67.4854 58.6611 67.4854C58.21 67.4854 57.8317 67.5993 57.5264 67.8271C57.221 68.055 57.0684 68.3307 57.0684 68.6543H55.7969C55.7969 68.2852 55.9268 67.9297 56.1865 67.5879C56.4508 67.2415 56.8063 66.9681 57.2529 66.7676C57.7041 66.5671 58.1986 66.4668 58.7363 66.4668C59.5885 66.4668 60.2562 66.681 60.7393 67.1094C61.2223 67.5332 61.473 68.1188 61.4912 68.8662V72.2705C61.4912 72.9495 61.5778 73.4896 61.751 73.8906V74H60.4248ZM58.3262 73.0361C58.7227 73.0361 59.0986 72.9336 59.4541 72.7285C59.8096 72.5234 60.0671 72.2568 60.2266 71.9287V70.4111H59.2354C57.6859 70.4111 56.9111 70.8646 56.9111 71.7715C56.9111 72.168 57.0433 72.4779 57.3076 72.7012C57.5719 72.9245 57.9115 73.0361 58.3262 73.0361ZM64.8477 74H63.583V66.6035H64.8477V74ZM63.4805 64.6416C63.4805 64.4365 63.542 64.2633 63.665 64.1221C63.7926 63.9808 63.9795 63.9102 64.2256 63.9102C64.4717 63.9102 64.6585 63.9808 64.7861 64.1221C64.9137 64.2633 64.9775 64.4365 64.9775 64.6416C64.9775 64.8467 64.9137 65.0176 64.7861 65.1543C64.6585 65.291 64.4717 65.3594 64.2256 65.3594C63.9795 65.3594 63.7926 65.291 63.665 65.1543C63.542 65.0176 63.4805 64.8467 63.4805 64.6416ZM66.5703 70.2402C66.5703 69.1055 66.8392 68.194 67.377 67.5059C67.9147 66.8132 68.6188 66.4668 69.4893 66.4668C70.3551 66.4668 71.041 66.763 71.5469 67.3555V63.5H72.8115V74H71.6494L71.5879 73.207C71.082 73.8268 70.3779 74.1367 69.4756 74.1367C68.6188 74.1367 67.9193 73.7858 67.377 73.084C66.8392 72.3822 66.5703 71.4661 66.5703 70.3359V70.2402ZM67.835 70.3838C67.835 71.2223 68.0081 71.8786 68.3545 72.3525C68.7008 72.8265 69.1794 73.0635 69.79 73.0635C70.5921 73.0635 71.1777 72.7035 71.5469 71.9834V68.5859C71.1686 67.8887 70.5876 67.54 69.8037 67.54C69.1839 67.54 68.7008 67.7793 68.3545 68.2578C68.0081 68.7363 67.835 69.445 67.835 70.3838ZM35.8701 83.127H32.6709V92H31.3652V83.127H28.1729V82.0469H35.8701V83.127ZM36.1299 88.2334C36.1299 87.5088 36.2712 86.8571 36.5537 86.2783C36.8408 85.6995 37.2373 85.2529 37.7432 84.9385C38.2536 84.624 38.8346 84.4668 39.4863 84.4668C40.4935 84.4668 41.307 84.8154 41.9268 85.5127C42.5511 86.21 42.8633 87.1374 42.8633 88.2949V88.3838C42.8633 89.1038 42.7243 89.751 42.4463 90.3252C42.1729 90.8949 41.7786 91.3392 41.2637 91.6582C40.7533 91.9772 40.1654 92.1367 39.5 92.1367C38.4974 92.1367 37.6839 91.7881 37.0596 91.0908C36.4398 90.3936 36.1299 89.4707 36.1299 88.3223V88.2334ZM37.4014 88.3838C37.4014 89.2041 37.5905 89.8626 37.9688 90.3594C38.3516 90.8561 38.862 91.1045 39.5 91.1045C40.1426 91.1045 40.653 90.8538 41.0312 90.3525C41.4095 89.8467 41.5986 89.1403 41.5986 88.2334C41.5986 87.4222 41.4049 86.766 41.0176 86.2646C40.6348 85.7588 40.1243 85.5059 39.4863 85.5059C38.862 85.5059 38.3584 85.7542 37.9756 86.251C37.5928 86.7477 37.4014 87.4587 37.4014 88.3838ZM50.6973 88.3838C50.6973 89.5094 50.4398 90.4163 49.9248 91.1045C49.4098 91.7926 48.7126 92.1367 47.833 92.1367C46.9352 92.1367 46.2288 91.8519 45.7139 91.2822V94.8438H44.4492V84.6035H45.6045L45.666 85.4238C46.181 84.7858 46.8965 84.4668 47.8125 84.4668C48.7012 84.4668 49.403 84.8018 49.918 85.4717C50.4375 86.1416 50.6973 87.0736 50.6973 88.2676V88.3838ZM49.4326 88.2402C49.4326 87.4062 49.2549 86.7477 48.8994 86.2646C48.5439 85.7816 48.0563 85.54 47.4365 85.54C46.6709 85.54 46.0967 85.8796 45.7139 86.5586V90.0928C46.0921 90.7673 46.6709 91.1045 47.4502 91.1045C48.0563 91.1045 48.5371 90.8652 48.8926 90.3867C49.2526 89.9036 49.4326 89.1882 49.4326 88.2402ZM54.9424 88.2881H51.6064V87.2559H54.9424V88.2881ZM63.3848 82.0469V88.8145C63.3802 89.7533 63.084 90.5212 62.4961 91.1182C61.9128 91.7152 61.1198 92.0501 60.1172 92.123L59.7686 92.1367C58.6794 92.1367 57.8112 91.8428 57.1641 91.2549C56.5169 90.667 56.1888 89.8581 56.1797 88.8281V82.0469H57.4785V88.7871C57.4785 89.5072 57.6768 90.0677 58.0732 90.4688C58.4697 90.8652 59.0348 91.0635 59.7686 91.0635C60.5114 91.0635 61.0788 90.8652 61.4707 90.4688C61.8672 90.0723 62.0654 89.514 62.0654 88.7939V82.0469H63.3848ZM71.5059 88.3838C71.5059 89.5094 71.2484 90.4163 70.7334 91.1045C70.2184 91.7926 69.5212 92.1367 68.6416 92.1367C67.7438 92.1367 67.0374 91.8519 66.5225 91.2822V94.8438H65.2578V84.6035H66.4131L66.4746 85.4238C66.9896 84.7858 67.7051 84.4668 68.6211 84.4668C69.5098 84.4668 70.2116 84.8018 70.7266 85.4717C71.2461 86.1416 71.5059 87.0736 71.5059 88.2676V88.3838ZM70.2412 88.2402C70.2412 87.4062 70.0635 86.7477 69.708 86.2646C69.3525 85.7816 68.8649 85.54 68.2451 85.54C67.4795 85.54 66.9053 85.8796 66.5225 86.5586V90.0928C66.9007 90.7673 67.4795 91.1045 68.2588 91.1045C68.8649 91.1045 69.3457 90.8652 69.7012 90.3867C70.0612 89.9036 70.2412 89.1882 70.2412 88.2402Z" fill="#242424"/>
<circle cx="50" cy="28" r="28" fill="#F0F7FC"/>
<path d="M48.27 27.38L50.82 29.93L56.73 24L58 25.27L50.81 32.46L47 28.65L48.27 27.38Z" fill="#00AEEF"/>
<path d="M45 17H55C56.1 17 57 17.9 57 19V22H55V20H45V36H55V32H57V37C57 38.1 56.1 39 55 39H45C43.9 39 43 38.1 43 37V19C43 17.9 43.9 17 45 17Z" fill="#003A63"/>
</svg>
