<svg width="111" height="100" viewBox="0 0 111 100" fill="none" xmlns="http://www.w3.org/2000/svg">
<path d="M108.741 31.5899C116.646 57.6235 94.0997 84.9994 69.2504 92.8881C44.2366 100.829 10.601 91.0203 2.00271 66.1641C-6.99824 40.1437 15.7142 9.99384 42.6926 2.33602C67.4799 -4.6998 100.915 5.81878 108.741 31.5899Z" fill="#03045E"/>
<path opacity="0.5" d="M108.741 31.5899C116.646 57.6235 94.0997 84.9994 69.2504 92.8881C44.2366 100.829 10.601 91.0203 2.00271 66.1641C-6.99824 40.1437 15.7142 9.99384 42.6926 2.33602C67.4799 -4.6998 100.915 5.81878 108.741 31.5899Z" fill="white"/>
<path d="M72.5344 96.7661C72.6034 97.1042 72.6508 97.6282 72.3873 98.099C72.0972 98.6174 71.6127 98.7451 70.2303 99.1933C68.2748 99.8272 67.7619 100.011 66.9321 99.9995C66.4389 99.9925 65.5991 99.96 65.4662 99.5597C65.359 99.2368 65.7366 98.7442 66.3702 98.3382C67.411 97.8142 68.825 97.2901 69.8659 96.7661" fill="#0E538C"/>
<path d="M72.4035 96.7498H70.0097L68.7023 66.4613H73.7109C73.8255 70.4093 73.8153 74.6196 73.6274 79.0624C73.4071 84.2713 72.9702 92.2429 72.4035 96.7498Z" fill="#F4B99F"/>
<path d="M79.1831 96.7498H76.7893L75.4819 66.4613H80.4905C80.6051 70.4093 80.5948 74.6196 80.407 79.0624C80.1867 84.2713 79.7497 92.2429 79.1831 96.7498Z" fill="#F4B99F"/>
<path d="M66.6754 12.3758C66.492 12.5921 65.0869 14.2969 65.1277 16.6029C65.1621 18.5481 66.2044 21.2268 65.9306 22.7553C65.7642 23.685 65.535 23.9105 65.074 25.1217C64.5322 26.5454 63.1471 30.1853 63.8426 32.8516C64.7147 36.1954 68.9498 38.3576 72.3553 38.7937C77.8285 39.4947 83.9132 36.0896 84.2944 32.5887C84.6246 29.5565 80.4443 28.5826 80.0648 23.5967C79.9015 21.4511 80.6025 20.6707 80.1183 17.8649C79.9294 16.7703 79.6064 14.6043 78.1909 12.8693C76.233 10.4694 73.2062 10.1014 72.1201 10.0332C72.027 10.0274 71.9371 10.0209 71.8107 10.0184C69.8271 9.97837 67.8736 10.963 66.6754 12.3758Z" fill="#0E538C"/>
<path d="M67.7052 29.2169C66.4955 29.0768 65.4259 30.0043 65.3934 31.2216L65.0318 44.7693C65.0179 45.2908 65.5128 45.7536 66.1652 45.8291C66.8391 45.9072 67.4394 45.5451 67.5186 45.0128L69.5179 31.5823C69.6905 30.4233 68.8693 29.3516 67.7052 29.2169Z" fill="#F4B99F"/>
<path d="M65.5443 43.7043L55.4984 52.5038L56.3915 53.6859L67.1008 45.701C67.4809 45.4175 67.4463 44.732 67.0233 44.1722C66.587 43.5947 65.9129 43.3814 65.5443 43.7043Z" fill="#F4B99F"/>
<path d="M70.5917 23.1671L70.9707 27.5354H75.6387L76.0177 17.9622L70.5917 23.1671Z" fill="#F4B99F"/>
<path d="M75.6581 27.0501C80.3596 28.3097 82.4016 30.0855 82.4016 30.0855C74.0744 34.6845 65.833 30.0855 65.833 30.0855C66.949 29.0737 70.8984 27.0501 70.8984 27.0501H75.6581Z" fill="#F4B99F"/>
<path d="M66.2506 37.1739C66.8525 38.7583 67.5752 38.8131 68.4783 40.7938C68.9777 41.8891 69.2065 42.8586 69.3206 43.4827C72.8635 43.4827 76.4066 43.4827 79.9495 43.4827C79.8931 42.3662 79.895 41.1556 79.9882 39.8657C80.2774 35.8637 81.3408 32.5438 82.4016 30.0853C81.7174 29.6187 80.9091 29.1267 79.9759 28.6593C79.0025 28.1718 78.0879 27.8085 77.2767 27.5352C77.2767 27.5352 73.2147 31.5428 69.9764 27.5352C69.9764 27.5352 67.1748 28.7166 66.4786 29.5897C66.2691 30.3106 66.0302 31.3242 65.9208 32.5551C65.7829 34.1064 65.6506 35.5944 66.2506 37.1739Z" fill="#0E538C"/>
<path d="M69.3207 43.4827C69.3207 43.4827 65.6939 65.1679 60.6815 74.5885C60.6815 74.5885 64.5937 76.366 69.3207 74.5885C69.3207 74.5885 77.2501 77.6103 82.4016 74.4108C82.4016 74.4108 88.2493 74.5885 90.3379 72.9888C90.3379 72.9888 86.6844 59.5758 79.9496 43.4827H69.3207Z" fill="#FEDF00"/>
<path d="M55.5795 52.4735C55.5795 52.4735 53.908 52.8163 53.184 54.3587C52.46 55.901 54.0369 55.4815 54.635 54.4005C55.2331 53.3196 56.4303 54.5585 56.7849 53.4323C56.7849 53.4323 56.8631 52.6566 55.5795 52.4735Z" fill="#F4B99F"/>
<path d="M41.4629 99.6434C42.4389 99.6434 43.2302 98.8521 43.2302 97.8761C43.2302 96.9001 42.4389 96.1089 41.4629 96.1089C40.4869 96.1089 39.6957 96.9001 39.6957 97.8761C39.6957 98.8521 40.4869 99.6434 41.4629 99.6434Z" fill="#0E538C"/>
<path d="M41.4629 99.6434C42.4389 99.6434 43.2302 98.8521 43.2302 97.8761C43.2302 96.9001 42.4389 96.1089 41.4629 96.1089C40.4869 96.1089 39.6957 96.9001 39.6957 97.8761C39.6957 98.8521 40.4869 99.6434 41.4629 99.6434Z" fill="#0E538C"/>
<path opacity="0.1" d="M41.4629 99.1258C42.1531 99.1258 42.7125 98.5663 42.7125 97.8762C42.7125 97.1861 42.1531 96.6266 41.4629 96.6266C40.7728 96.6266 40.2134 97.1861 40.2134 97.8762C40.2134 98.5663 40.7728 99.1258 41.4629 99.1258Z" fill="#0E538C"/>
<path opacity="0.11" d="M41.4629 99.6434C42.4389 99.6434 43.2302 98.8521 43.2302 97.8761C43.2302 96.9001 42.4389 96.1089 41.4629 96.1089C40.4869 96.1089 39.6957 96.9001 39.6957 97.8761C39.6957 98.8521 40.4869 99.6434 41.4629 99.6434Z" fill="#0E538C"/>
<path d="M26.0431 99.6434C27.0191 99.6434 27.8103 98.8521 27.8103 97.8761C27.8103 96.9001 27.0191 96.1089 26.0431 96.1089C25.0671 96.1089 24.2759 96.9001 24.2759 97.8761C24.2759 98.8521 25.0671 99.6434 26.0431 99.6434Z" fill="#0E538C"/>
<path d="M26.0431 99.6434C27.0191 99.6434 27.8103 98.8521 27.8103 97.8761C27.8103 96.9001 27.0191 96.1089 26.0431 96.1089C25.0671 96.1089 24.2759 96.9001 24.2759 97.8761C24.2759 98.8521 25.0671 99.6434 26.0431 99.6434Z" fill="#0E538C"/>
<path opacity="0.1" d="M26.0432 99.1258C26.7333 99.1258 27.2928 98.5663 27.2928 97.8762C27.2928 97.1861 26.7333 96.6266 26.0432 96.6266C25.353 96.6266 24.7936 97.1861 24.7936 97.8762C24.7936 98.5663 25.353 99.1258 26.0432 99.1258Z" fill="#0E538C"/>
<path opacity="0.11" d="M26.0431 99.6434C27.0191 99.6434 27.8103 98.8521 27.8103 97.8761C27.8103 96.9001 27.0191 96.1089 26.0431 96.1089C25.0671 96.1089 24.2759 96.9001 24.2759 97.8761C24.2759 98.8521 25.0671 99.6434 26.0431 99.6434Z" fill="#0E538C"/>
<path d="M56.3503 99.6434C57.3263 99.6434 58.1175 98.8521 58.1175 97.8761C58.1175 96.9001 57.3263 96.1089 56.3503 96.1089C55.3743 96.1089 54.5831 96.9001 54.5831 97.8761C54.5831 98.8521 55.3743 99.6434 56.3503 99.6434Z" fill="#0E538C"/>
<path d="M41.8084 83.1155C43.2283 79.8907 44.6483 76.6657 46.0683 73.4409C48.3198 68.3276 50.5711 63.2143 52.8226 58.1011C53.3426 56.9203 53.8625 55.7394 54.3825 54.5586C54.2673 54.6247 54.1519 54.6908 54.0366 54.757C58.108 54.757 62.1795 54.757 66.2509 54.757C66.8343 54.757 67.4175 54.757 68.0009 54.757C67.8722 54.5879 67.7434 54.419 67.6147 54.25C66.4202 57.4623 65.2257 60.6746 64.0312 63.8869C62.1257 69.0114 60.2201 74.1359 58.3146 79.2604C57.875 80.4425 57.4354 81.6248 56.9958 82.8069C57.1245 82.709 57.2533 82.6109 57.382 82.5129C52.7331 82.5129 48.0841 82.5129 43.4351 82.5129C42.7777 82.5129 42.1202 82.5129 41.4627 82.5129C40.9473 82.5129 40.9464 83.3139 41.4627 83.3139C46.1117 83.3139 50.7607 83.3139 55.4096 83.3139C56.0671 83.3139 56.7246 83.3139 57.382 83.3139C57.571 83.3139 57.7061 83.1873 57.7683 83.0199C58.9628 79.8075 60.1573 76.5953 61.3518 73.3829C63.2573 68.2585 65.1629 63.134 67.0684 58.0095C67.508 56.8273 67.9475 55.6451 68.3872 54.4629C68.4795 54.2148 68.2426 53.9559 68.0009 53.9559C63.9296 53.9559 59.8582 53.9559 55.7867 53.9559C55.2033 53.9559 54.62 53.9559 54.0366 53.9559C53.9081 53.9559 53.7457 54.0295 53.6907 54.1543C52.2708 57.3792 50.8508 60.6042 49.4308 63.829C47.1793 68.9423 44.928 74.0556 42.6765 79.1688C42.1565 80.3496 41.6366 81.5305 41.1166 82.7113C40.9109 83.1787 41.6009 83.5868 41.8084 83.1155Z" fill="#0E538C"/>
<path d="M57.2667 95.7085C52.6675 95.7085 48.0685 95.7085 43.4693 95.7085C42.8004 95.7085 42.1315 95.7085 41.4625 95.7085C41.5961 95.8421 41.7295 95.9755 41.8631 96.1091C41.8631 91.764 41.8631 87.4189 41.8631 83.0737C41.7295 83.2073 41.5961 83.3408 41.4625 83.4743C46.0616 83.4743 50.6607 83.4743 55.2598 83.4743C55.9287 83.4743 56.5978 83.4743 57.2667 83.4743C57.1331 83.3408 56.9997 83.2073 56.8661 83.0737C56.8661 87.4189 56.8661 91.764 56.8661 96.1091C56.8661 96.6245 57.6671 96.6255 57.6671 96.1091C57.6671 91.764 57.6671 87.4189 57.6671 83.0737C57.6671 82.8573 57.4837 82.6732 57.2666 82.6732C52.6674 82.6732 48.0684 82.6732 43.4692 82.6732C42.8003 82.6732 42.1314 82.6732 41.4624 82.6732C41.2459 82.6732 41.0618 82.8566 41.0618 83.0737C41.0618 87.4189 41.0618 91.764 41.0618 96.1091C41.0618 96.3256 41.2452 96.5097 41.4624 96.5097C46.0615 96.5097 50.6606 96.5097 55.2597 96.5097C55.9286 96.5097 56.5976 96.5097 57.2666 96.5097C57.7821 96.5096 57.783 95.7085 57.2667 95.7085Z" fill="#0E538C"/>
<path d="M57.2668 95.8686C53.3524 95.8686 49.438 95.8686 45.5236 95.8686C39.3146 95.8686 33.1059 95.8686 26.897 95.8686C25.4652 95.8686 24.0335 95.8686 22.6017 95.8686C22.0863 95.8686 22.0854 96.6697 22.6017 96.6697C26.5161 96.6697 30.4305 96.6697 34.3449 96.6697C40.5538 96.6697 46.7626 96.6697 52.9715 96.6697C54.4033 96.6697 55.835 96.6697 57.2668 96.6697C57.7822 96.6697 57.7831 95.8686 57.2668 95.8686Z" fill="#0E538C"/>
<path d="M49.6396 63.5786C45.6858 63.5786 41.732 63.5786 37.7781 63.5786C31.5028 63.5786 25.2276 63.5786 18.9524 63.5786C17.5007 63.5786 16.0489 63.5786 14.5973 63.5786C14.286 63.5786 14.1085 63.9167 14.2514 64.1814C17.2373 69.7088 20.2233 75.2362 23.2092 80.7637C23.6328 81.5477 24.0563 82.3318 24.4799 83.1158C24.5462 83.2387 24.6883 83.3142 24.8257 83.3142C29.5286 83.3142 34.2314 83.3142 38.9343 83.3142C42.7568 83.3142 46.5794 83.3142 50.4019 83.3142C52.6369 83.3142 54.8718 83.3142 57.1068 83.3142C57.2983 83.3142 57.4277 83.1869 57.4931 83.0202C59.6586 77.49 61.824 71.9599 63.9894 66.4299C64.2954 65.6486 64.6013 64.8671 64.9073 64.0859C65.0042 63.8385 64.759 63.5788 64.521 63.5788C60.1824 63.5788 55.8439 63.5788 51.5054 63.5788C50.8834 63.5786 50.2614 63.5786 49.6396 63.5786C49.1241 63.5786 49.1232 64.3796 49.6396 64.3796C53.9781 64.3796 58.3166 64.3796 62.6551 64.3796C63.277 64.3796 63.899 64.3796 64.5208 64.3796C64.3921 64.2106 64.2633 64.0417 64.1345 63.8726C61.969 69.4028 59.8036 74.9329 57.6382 80.4629C57.3322 81.2442 57.0263 82.0256 56.7203 82.8069C56.8491 82.709 56.9779 82.6109 57.1066 82.5129C52.4002 82.5129 47.6938 82.5129 42.9873 82.5129C39.0989 82.5129 35.2104 82.5129 31.3219 82.5129C29.1564 82.5129 26.9911 82.5129 24.8256 82.5129C24.9409 82.579 25.0562 82.6452 25.1715 82.7113C22.1856 77.1839 19.1996 71.6565 16.2137 66.1289C15.7901 65.3449 15.3666 64.5609 14.9431 63.7769C14.8278 63.9777 14.7124 64.1786 14.5972 64.3796C18.5509 64.3796 22.5047 64.3796 26.4586 64.3796C32.7338 64.3796 39.0091 64.3796 45.2843 64.3796C46.736 64.3796 48.1878 64.3796 49.6394 64.3796C50.155 64.3798 50.1559 63.5786 49.6396 63.5786Z" fill="#0E538C"/>
<path d="M18.9025 64.1308C21.8884 69.6582 24.8744 75.1856 27.8603 80.7132C28.2839 81.4972 28.7074 82.2812 29.131 83.0653C29.3148 83.4056 29.8338 83.1026 29.6498 82.762C26.6639 77.2346 23.6779 71.7072 20.692 66.1796C20.2684 65.3956 19.8449 64.6116 19.4214 63.8275C19.2375 63.4872 18.7187 63.7902 18.9025 64.1308Z" fill="#0E538C"/>
<path d="M24.9385 64.1308C27.9244 69.6582 30.9104 75.1856 33.8963 80.7132C34.3199 81.4972 34.7433 82.2812 35.1669 83.0653C35.3508 83.4056 35.8697 83.1026 35.6857 82.762C32.6998 77.2346 29.7138 71.7072 26.7279 66.1796C26.3043 65.3956 25.8809 64.6116 25.4573 63.8275C25.2733 63.4872 24.7545 63.7902 24.9385 64.1308Z" fill="#0E538C"/>
<path d="M30.0528 64.1308C33.0387 69.6582 36.0247 75.1856 39.0106 80.7132C39.4342 81.4972 39.8576 82.2812 40.2812 83.0653C40.465 83.4056 40.984 83.1026 40.8 82.762C37.8141 77.2346 34.8281 71.7072 31.8422 66.1796C31.4186 65.3956 30.9952 64.6116 30.5716 63.8275C30.3878 63.4872 29.8688 63.7902 30.0528 64.1308Z" fill="#0E538C"/>
<path d="M61.205 63.8273C58.2191 69.3547 55.2331 74.8822 52.2472 80.4097C51.8236 81.1937 51.4002 81.9777 50.9766 82.7618C50.7929 83.1019 51.3113 83.4057 51.4954 83.065C54.4813 77.5376 57.4673 72.0102 60.4532 66.4827C60.8768 65.6986 61.3003 64.9146 61.7239 64.1306C61.9076 63.7904 61.389 63.4866 61.205 63.8273Z" fill="#0E538C"/>
<path d="M55.2953 63.8273C52.3094 69.3547 49.3233 74.8822 46.3375 80.4097C45.9139 81.1937 45.4904 81.9777 45.0668 82.7618C44.8831 83.1019 45.4015 83.4057 45.5856 83.065C48.5715 77.5376 51.5576 72.0102 54.5435 66.4827C54.9671 65.6986 55.3905 64.9146 55.8141 64.1306C55.9978 63.7904 55.4793 63.4866 55.2953 63.8273Z" fill="#0E538C"/>
<path d="M42.2131 63.8273C39.2272 69.3547 36.2412 74.8822 33.2553 80.4097C32.8317 81.1937 32.4082 81.9777 31.9847 82.7618C31.8009 83.1019 32.3194 83.4057 32.5035 83.065C35.4894 77.5376 38.4754 72.0102 41.4613 66.4827C41.8849 65.6986 42.3083 64.9146 42.7319 64.1306C42.9157 63.7904 42.3971 63.4866 42.2131 63.8273Z" fill="#0E538C"/>
<path d="M43.6972 63.979C43.6972 69.5142 43.6972 75.0496 43.6972 80.5848C43.6972 81.361 43.6972 82.1371 43.6972 82.9133C43.6972 83.2999 44.298 83.3005 44.298 82.9133C44.298 77.3781 44.298 71.8428 44.298 66.3076C44.298 65.5313 44.298 64.7552 44.298 63.979C44.298 63.5924 43.6972 63.5918 43.6972 63.979Z" fill="#0E538C"/>
<path d="M20.6292 75.2018C26.297 75.2018 31.9647 75.2018 37.6324 75.2018C39.7761 75.2018 41.9277 75.1475 44.0708 75.2018C46.3352 75.2593 48.6043 75.453 50.8657 75.579C53.8641 75.7463 56.8626 75.9134 59.8609 76.0806C60.1185 76.0949 60.1177 75.6943 59.8609 75.68C54.6234 75.388 49.3769 74.9652 44.1341 74.8032C38.7109 74.6356 33.257 74.8012 27.8314 74.8012C25.4307 74.8012 23.0299 74.8012 20.6292 74.8012C20.3714 74.8012 20.371 75.2018 20.6292 75.2018Z" fill="#0E538C"/>
<path d="M18.1838 70.8186C24.4152 70.8186 30.6464 70.8186 36.8778 70.8186C39.2717 70.8186 41.674 70.7595 44.0674 70.8186C46.5685 70.8804 49.0752 71.096 51.573 71.2353C54.8593 71.4185 58.1456 71.6017 61.4319 71.7849C61.6895 71.7992 61.6887 71.3986 61.4319 71.3843C55.6728 71.0633 49.9043 70.6005 44.1392 70.4202C42.1693 70.3586 40.1882 70.418 38.2175 70.418C34.1671 70.418 30.1168 70.418 26.0666 70.418C23.439 70.418 20.8114 70.418 18.1838 70.418C17.926 70.418 17.9256 70.8186 18.1838 70.8186Z" fill="#0E538C"/>
<path d="M56.3503 99.6434C57.3263 99.6434 58.1175 98.8521 58.1175 97.8761C58.1175 96.9001 57.3263 96.1089 56.3503 96.1089C55.3743 96.1089 54.5831 96.9001 54.5831 97.8761C54.5831 98.8521 55.3743 99.6434 56.3503 99.6434Z" fill="#0E538C"/>
<path opacity="0.1" d="M56.3504 99.1258C57.0405 99.1258 57.5999 98.5663 57.5999 97.8762C57.5999 97.1861 57.0405 96.6266 56.3504 96.6266C55.6602 96.6266 55.1008 97.1861 55.1008 97.8762C55.1008 98.5663 55.6602 99.1258 56.3504 99.1258Z" fill="#0E538C"/>
<path d="M32.7118 99.6434C33.6878 99.6434 34.4791 98.8521 34.4791 97.8761C34.4791 96.9001 33.6878 96.1089 32.7118 96.1089C31.7358 96.1089 30.9446 96.9001 30.9446 97.8761C30.9446 98.8521 31.7358 99.6434 32.7118 99.6434Z" fill="#0E538C"/>
<path d="M32.7118 99.6434C33.6878 99.6434 34.4791 98.8521 34.4791 97.8761C34.4791 96.9001 33.6878 96.1089 32.7118 96.1089C31.7358 96.1089 30.9446 96.9001 30.9446 97.8761C30.9446 98.8521 31.7358 99.6434 32.7118 99.6434Z" fill="#0E538C"/>
<path opacity="0.1" d="M32.7119 99.1258C33.402 99.1258 33.9614 98.5663 33.9614 97.8762C33.9614 97.1861 33.402 96.6266 32.7119 96.6266C32.0217 96.6266 31.4623 97.1861 31.4623 97.8762C31.4623 98.5663 32.0217 99.1258 32.7119 99.1258Z" fill="#0E538C"/>
<path d="M69.8665 96.7659C69.8665 96.7659 68.3932 97.4557 67.241 98.3651C67.0871 98.4866 67.1379 98.736 67.3289 98.7799C67.9598 98.9249 69.4593 98.8422 72.535 96.7658C72.1919 96.6856 71.7463 96.6141 71.2242 96.6121C70.6808 96.6101 70.2185 96.6838 69.8665 96.7659Z" fill="#F4B99F"/>
<path d="M79.4479 96.7661C79.5169 97.1042 79.5643 97.6282 79.3008 98.099C79.0107 98.6174 78.5262 98.7451 77.1438 99.1933C75.1883 99.8272 74.6754 100.011 73.8457 99.9995C73.3524 99.9925 72.5127 99.96 72.3797 99.5597C72.2725 99.2368 72.6501 98.7442 73.2837 98.3382C74.3245 97.8142 75.7385 97.2901 76.7794 96.7661" fill="#0E538C"/>
<path d="M76.7795 96.7661C76.7795 96.7661 75.3061 97.4559 74.1539 98.3653C74 98.4868 74.0508 98.7362 74.2418 98.7801C74.8727 98.9251 76.3722 98.8425 79.4479 96.766C79.1231 96.6894 78.7157 96.6229 78.2446 96.6123C77.6555 96.5991 77.1554 96.6776 76.7795 96.7661Z" fill="#F4B99F"/>
<path d="M80.9764 29.1982C79.6904 29.0493 78.5536 30.0353 78.5191 31.3293L78.1347 45.7302C78.1199 46.2845 78.6461 46.7764 79.3396 46.8567C80.0558 46.9396 80.694 46.5548 80.7782 45.9892L82.9034 31.7129C83.0866 30.4807 82.2137 29.3416 80.9764 29.1982Z" fill="#F4B99F"/>
<path d="M78.6793 44.5978L68.0007 53.9514L68.9502 55.208L80.3337 46.7203C80.7378 46.419 80.7009 45.6903 80.2515 45.0952C79.7876 44.4814 79.071 44.2546 78.6793 44.5978Z" fill="#F4B99F"/>
<path d="M68.0538 53.6871C68.0538 53.6871 66.0785 53.5891 64.8203 55.1116C63.562 56.6339 65.4534 56.6183 66.437 55.5775C67.4206 54.5368 68.4068 56.2735 69.13 55.1116C69.13 55.1116 69.4419 54.2635 68.0538 53.6871Z" fill="#F4B99F"/>
<path d="M70.7671 25.1873C71.1646 25.1786 71.735 25.1406 72.4071 25.0041C73.0351 24.8764 73.6134 24.7588 74.1787 24.4322C74.5104 24.2406 75.3061 23.7063 75.8401 22.4544C75.7028 23.0305 75.4846 23.4681 75.3061 23.7635C75.1233 24.0658 74.5099 24.9995 73.33 25.5232C72.9354 25.6983 72.5516 25.8687 72.0323 25.8116C71.3801 25.7399 70.9398 25.3565 70.7671 25.1873Z" fill="#E5A691"/>
<path d="M76.9203 17.3559C76.9509 17.0821 77.2159 14.2589 74.8645 12.5258C74.4988 12.2564 72.7816 11.0621 70.571 11.4211C70.1389 11.4913 69.195 11.66 68.3363 12.3438C65.5896 14.5309 66.8054 19.5407 67.0125 20.3307C67.4794 22.1102 68.229 23.0607 68.4427 23.3204C68.8903 23.8639 70.2661 25.5348 72.0493 25.3777C72.7703 25.3141 73.2678 24.9773 73.8602 24.5764C75.3535 23.5655 76.0167 22.1771 76.2622 21.6496C77.0684 19.9173 77.0402 18.3208 76.9203 17.3559Z" fill="#F4B99F"/>
<path d="M76.7083 16.8986C77.1818 16.6843 78.0287 17.2646 78.165 18.0601C78.3595 19.1955 77.006 20.1845 76.5158 19.9276C75.9322 19.6219 75.9654 17.2347 76.7083 16.8986Z" fill="#F4B99F"/>
<path d="M69.6216 14.9434C69.6216 14.9434 71.7263 18.0061 76.2726 18.4111C76.2726 18.4111 76.0564 17.1058 77.1477 16.8874C77.1477 16.8874 78.095 11.0286 71.8588 10.8181C71.8588 10.8181 65.5805 10.4814 66.2961 16.8797C66.2962 16.8799 67.6853 16.6694 69.6216 14.9434Z" fill="#0E538C"/>
<path d="M75.2626 18.2899C75.2626 18.2899 77.2845 21.5486 76.1707 24.6863C76.1707 24.6863 77.273 21.1181 76.4956 18.4668C75.7182 15.8155 75.2626 18.2899 75.2626 18.2899Z" fill="#0E538C"/>
<path d="M30.1455 45.0123L30.9443 42.9191L31.7433 45.0123L33.2041 45.618L31.7433 46.2237L30.9443 48.3168L30.1455 46.2237L28.6846 45.618L30.1455 45.0123Z" fill="#FEDF00"/>
<path d="M50.2191 27.1374L50.5899 26.1658L50.9608 27.1374L51.6389 27.4185L50.9608 27.6997L50.5899 28.6713L50.2191 27.6997L49.541 27.4185L50.2191 27.1374Z" fill="#FEDF00"/>
<path d="M91.0297 56.0319L91.4005 55.0603L91.7714 56.0319L92.4495 56.3131L91.7714 56.5943L91.4005 57.5659L91.0297 56.5943L90.3516 56.3131L91.0297 56.0319Z" fill="#FEDF00"/>
<path d="M15.0466 81.1548L15.25 80.6222L15.4532 81.1548L15.8249 81.3089L15.4532 81.4632L15.25 81.9958L15.0466 81.4632L14.6749 81.3089L15.0466 81.1548Z" fill="#FEDF00"/>
<path d="M13.8377 53.4103L14.2012 52.4577L14.5648 53.4103L15.2295 53.6858L14.5648 53.9614L14.2012 54.914L13.8377 53.9614L13.1729 53.6858L13.8377 53.4103Z" fill="#FEDF00"/>
<path d="M50.5742 45.3423L50.9377 44.3897L51.3013 45.3423L51.966 45.6178L51.3013 45.8936L50.9377 46.846L50.5742 45.8936L49.9094 45.6178L50.5742 45.3423Z" fill="#FEDF00"/>
<path d="M90.6603 28.1096L91.4011 26.1685L92.1419 28.1096L93.4965 28.6712L92.1419 29.2329L91.4011 31.1739L90.6603 29.2329L89.3058 28.6712L90.6603 28.1096Z" fill="#FEDF00"/>
<path d="M95.2666 43.2364L95.5917 42.3846L95.9168 43.2364L96.5112 43.4827L95.9168 43.7292L95.5917 44.5809L95.2666 43.7292L94.6722 43.4827L95.2666 43.2364Z" fill="#FEDF00"/>
</svg>
